<?xml version="1.0" encoding="UTF-8" standalone="no"?><!DOCTYPE svg PUBLIC "-//W3C//DTD SVG 1.1//EN" "http://www.w3.org/Graphics/SVG/1.1/DTD/svg11.dtd"><svg width="100%" height="100%" viewBox="0 0 60 60" version="1.1" xmlns="http://www.w3.org/2000/svg" xmlns:xlink="http://www.w3.org/1999/xlink" xml:space="preserve" xmlns:serif="http://www.serif.com/" style="fill-rule:evenodd;clip-rule:evenodd;stroke-linejoin:round;stroke-miterlimit:1.41421;"><path d="M38.914,0l-32.414,0l0,60l47,0l0,-45.414l-14.586,-14.586Zm-14.789,41.781l-5,4c-0.184,0.147 -0.405,0.219 -0.625,0.219c-0.257,0 -0.514,-0.099 -0.708,-0.293l-2,-2c-0.391,-0.391 -0.391,-1.023 0,-1.414c0.391,-0.391 1.023,-0.391 1.414,0l1.367,1.367l4.301,-3.441c0.43,-0.345 1.061,-0.275 1.405,0.156c0.347,0.432 0.277,1.061 -0.154,1.406Zm0,-11l-5,4c-0.184,0.147 -0.405,0.219 -0.625,0.219c-0.257,0 -0.514,-0.099 -0.708,-0.293l-2,-2c-0.391,-0.391 -0.391,-1.023 0,-1.414c0.391,-0.391 1.023,-0.391 1.414,0l1.367,1.367l4.301,-3.441c0.43,-0.345 1.061,-0.275 1.405,0.156c0.347,0.432 0.277,1.061 -0.154,1.406Zm0,-11l-5,4c-0.184,0.147 -0.405,0.219 -0.625,0.219c-0.257,0 -0.514,-0.099 -0.708,-0.293l-2,-2c-0.391,-0.391 -0.391,-1.023 0,-1.414c0.391,-0.391 1.023,-0.391 1.414,0l1.367,1.367l4.301,-3.441c0.43,-0.345 1.061,-0.275 1.405,0.156c0.347,0.432 0.277,1.061 -0.154,1.406Zm18.375,25.219l-16,0c-0.552,0 -1,-0.447 -1,-1c0,-0.553 0.448,-1 1,-1l16,0c0.552,0 1,0.447 1,1c0,0.553 -0.448,1 -1,1Zm0,-11l-16,0c-0.552,0 -1,-0.447 -1,-1c0,-0.553 0.448,-1 1,-1l16,0c0.552,0 1,0.447 1,1c0,0.553 -0.448,1 -1,1Zm0,-11l-16,0c-0.552,0 -1,-0.447 -1,-1c0,-0.553 0.448,-1 1,-1l16,0c0.552,0 1,0.447 1,1c0,0.553 -0.448,1 -1,1Zm-5,-7l0,-14l14,14l-14,0Z" style="fill:#ee8133;fill-rule:nonzero;"/></svg>