<?xml version="1.0" encoding="UTF-8" standalone="no"?>
<!DOCTYPE svg PUBLIC "-//W3C//DTD SVG 1.1//EN" "http://www.w3.org/Graphics/SVG/1.1/DTD/svg11.dtd">
<svg width="100%" height="100%" viewBox="0 0 460 460" version="1.1" xmlns="http://www.w3.org/2000/svg" xmlns:xlink="http://www.w3.org/1999/xlink" xml:space="preserve" xmlns:serif="http://www.serif.com/" style="fill-rule:evenodd;clip-rule:evenodd;stroke-linejoin:round;stroke-miterlimit:1.41421;">
    <g id="XMLID_498_">
        <rect id="XMLID_500_" x="70" y="78" width="85" height="174" style="fill:rgb(238,129,51);"/>
        <path id="XMLID_501_" d="M0,8L0,322L30,322L30,452L59,452L59,402L401,402L401,452L430,452L430,322L460,322L460,8L0,8ZM275,48L420,48L420,282L275,282L275,48ZM215,120L245,120L245,150L215,150L215,120ZM215,180L245,180L245,210L215,210L215,180ZM40,48L185,48L185,282L40,282L40,48ZM401,373L59,373L59,322L401,322L401,373Z" style="fill:rgb(238,129,51);fill-rule:nonzero;"/>
        <rect id="XMLID_508_" x="305" y="78" width="85" height="174" style="fill:rgb(238,129,51);"/>
    </g>
</svg>
