<?xml version="1.0" encoding="UTF-8" standalone="no"?><!DOCTYPE svg PUBLIC "-//W3C//DTD SVG 1.1//EN" "http://www.w3.org/Graphics/SVG/1.1/DTD/svg11.dtd"><svg width="100%" height="100%" viewBox="0 0 512 512" version="1.1" xmlns="http://www.w3.org/2000/svg" xmlns:xlink="http://www.w3.org/1999/xlink" xml:space="preserve" xmlns:serif="http://www.serif.com/" style="fill-rule:evenodd;clip-rule:evenodd;stroke-linejoin:round;stroke-miterlimit:1.41421;"><g><path d="M256,347c-24.814,0 -45,20.186 -45,45c0,24.814 20.186,45 45,45c24.814,0 45,-20.186 45,-45c0,-24.814 -20.186,-45 -45,-45Z" style="fill:#ee8133;fill-rule:nonzero;"/><path d="M256,272c-66.182,0 -120,53.833 -120,120c0,66.167 53.818,120 120,120c66.182,0 120,-53.833 120,-120c0,-66.167 -53.818,-120 -120,-120Zm0,195c-41.367,0 -75,-33.647 -75,-75c0,-41.353 33.633,-75 75,-75c41.367,0 75,33.647 75,75c0,41.353 -33.633,75 -75,75Z" style="fill:#ee8133;fill-rule:nonzero;"/><path d="M238.327,84.562l-65.003,-84.562l-127.324,0l127.496,171.004l64.831,-86.442Z" style="fill:#ee8133;fill-rule:nonzero;"/><path d="M196,254.715c18.406,-8.08 38.646,-12.715 60,-12.715c21.354,0 41.594,4.634 60,12.715l0,-43.715l-120,0l0,43.715Z" style="fill:#ee8133;fill-rule:nonzero;"/><path d="M331,181l135,-181l-127.5,0l-135,181l127.5,0Z" style="fill:#ee8133;fill-rule:nonzero;"/></g></svg>