<?xml version="1.0" encoding="UTF-8" standalone="no"?><!DOCTYPE svg PUBLIC "-//W3C//DTD SVG 1.1//EN" "http://www.w3.org/Graphics/SVG/1.1/DTD/svg11.dtd"><svg width="100%" height="100%" viewBox="0 0 336 106" version="1.1" xmlns="http://www.w3.org/2000/svg" xmlns:xlink="http://www.w3.org/1999/xlink" xml:space="preserve" xmlns:serif="http://www.serif.com/" style="fill-rule:evenodd;clip-rule:evenodd;stroke-linejoin:round;stroke-miterlimit:1.41421;"><rect x="-2.43" y="-1.599" width="339.592" height="108.26" style="fill:#424242;"/><g><path d="M146.446,42.05l-9.84,0l-3.96,22.56l-7.24,0l3.96,-22.56l-9.88,0l1.12,-6.24l26.96,0l-1.12,6.24Z" style="fill-rule:nonzero;stroke:#eb0000;stroke-opacity:0;stroke-width:0.24px;"/><path d="M165.846,64.61l-20.08,0l5.08,-28.8l20.08,0l-1.12,6.24l-12.88,0l-0.92,5.4l10.64,0l-1.12,6.24l-10.64,0l-0.8,4.68l12.88,0l-1.12,6.24Z" style="fill-rule:nonzero;stroke:#eb0000;stroke-opacity:0;stroke-width:0.24px;"/><path d="M197.726,35.81l-5.04,28.8l-7.24,0l-5.04,-15.76l-2.72,15.76l-7.24,0l5.08,-28.8l7.44,0l4.96,14.72l2.6,-14.72l7.2,0Z" style="fill-rule:nonzero;stroke:#eb0000;stroke-opacity:0;stroke-width:0.24px;"/><path d="M208.366,65.17c-3.787,0 -6.4,-0.88 -7.84,-2.64c-0.987,-1.226 -1.48,-2.906 -1.48,-5.04c0,-0.986 0.107,-2.066 0.32,-3.24l1.4,-8c1.253,-7.146 5.627,-10.72 13.12,-10.72c3.093,0 5.44,0.66 7.04,1.98c1.6,1.32 2.4,3.127 2.4,5.42c0,0.934 -0.127,1.88 -0.38,2.84c-0.253,0.96 -0.5,1.68 -0.74,2.16l-0.4,0.72l-7.08,0c0.693,-0.96 1.04,-2.066 1.04,-3.32c0,-2.4 -1,-3.6 -3,-3.6c-2.693,0 -4.307,1.56 -4.84,4.68l-1.36,7.68c-0.133,0.72 -0.2,1.427 -0.2,2.12c0,1.84 1.087,2.76 3.26,2.76c2.173,0 3.567,-1.093 4.18,-3.28l-3.28,0l0.8,-4.44l10.6,0l-0.64,3.44l-0.2,1.16c-1.12,6.214 -5.36,9.32 -12.72,9.32Z" style="fill-rule:nonzero;stroke:#eb0000;stroke-opacity:0;stroke-width:0.24px;"/><path d="M244.126,62.53c-2.107,1.76 -5.093,2.64 -8.96,2.64c-3.867,0 -6.547,-0.893 -8.04,-2.68c-1.067,-1.226 -1.6,-2.92 -1.6,-5.08c0,-0.96 0.107,-2.013 0.32,-3.16l3.24,-18.44l7.2,0l-3.24,18.28c-0.107,0.667 -0.16,1.36 -0.16,2.08c0,1.867 1.12,2.8 3.36,2.8c1.333,0 2.4,-0.346 3.2,-1.04c0.8,-0.693 1.36,-1.973 1.68,-3.84l3.24,-18.28l7.2,0l-3.24,18.44c-0.667,3.734 -2.067,6.494 -4.2,8.28Z" style="fill-rule:nonzero;stroke:#eb0000;stroke-opacity:0;stroke-width:0.24px;"/><path d="M270.166,64.61l-18.24,0l5.08,-28.8l7.2,0l-3.96,22.56l11.04,0l-1.12,6.24Z" style="fill-rule:nonzero;stroke:#eb0000;stroke-opacity:0;stroke-width:0.24px;"/><path d="M287.606,64.61l0.24,-6.28l-6.68,0l-1.96,6.28l-7.64,0l10.28,-28.8l13.2,0l0.16,28.8l-7.6,0Zm-1.64,-21.8l-3.16,10.16l5.24,0l0.44,-10.16l-2.52,0Z" style="fill-rule:nonzero;stroke:#eb0000;stroke-opacity:0;stroke-width:0.24px;"/><path d="M315.686,35.81c3.04,0 5.2,0.667 6.48,2c0.96,1.014 1.44,2.294 1.44,3.84c0,0.534 -0.053,1.094 -0.16,1.68l-0.56,3.12c-0.32,1.734 -0.873,3.134 -1.66,4.2c-0.787,1.067 -1.66,1.827 -2.62,2.28l3.64,11.68l-8.08,0l-3.36,-10.76l-2.48,0l-1.64,10.76l-7.68,0l5.08,-28.8l11.6,0Zm-2.52,6.24l-3,0l-1.04,6.96l2.8,0c1.413,0 2.427,-0.34 3.04,-1.02c0.613,-0.68 0.92,-1.58 0.92,-2.7c0,-2.16 -0.907,-3.24 -2.72,-3.24Z" style="fill-rule:nonzero;stroke:#eb0000;stroke-opacity:0;stroke-width:0.24px;"/><path d="M147.166,42.77l-9.84,0l-3.96,22.56l-7.24,0l3.96,-22.56l-9.88,0l1.12,-6.24l26.96,0l-1.12,6.24Z" style="fill-rule:nonzero;stroke:#eb0000;stroke-opacity:0;stroke-width:0.24px;"/><path d="M166.566,65.33l-20.08,0l5.08,-28.8l20.08,0l-1.12,6.24l-12.88,0l-0.92,5.4l10.64,0l-1.12,6.24l-10.64,0l-0.8,4.68l12.88,0l-1.12,6.24Z" style="fill-rule:nonzero;stroke:#eb0000;stroke-opacity:0;stroke-width:0.24px;"/><path d="M198.446,36.53l-5.04,28.8l-7.24,0l-5.04,-15.76l-2.72,15.76l-7.24,0l5.08,-28.8l7.44,0l4.96,14.72l2.6,-14.72l7.2,0Z" style="fill-rule:nonzero;stroke:#eb0000;stroke-opacity:0;stroke-width:0.24px;"/><path d="M209.086,65.89c-3.787,0 -6.4,-0.88 -7.84,-2.64c-0.987,-1.226 -1.48,-2.906 -1.48,-5.04c0,-0.986 0.107,-2.066 0.32,-3.24l1.4,-8c1.253,-7.146 5.627,-10.72 13.12,-10.72c3.093,0 5.44,0.66 7.04,1.98c1.6,1.32 2.4,3.127 2.4,5.42c0,0.934 -0.127,1.88 -0.38,2.84c-0.253,0.96 -0.5,1.68 -0.74,2.16l-0.4,0.72l-7.08,0c0.693,-0.96 1.04,-2.066 1.04,-3.32c0,-2.4 -1,-3.6 -3,-3.6c-2.693,0 -4.307,1.56 -4.84,4.68l-1.36,7.68c-0.133,0.72 -0.2,1.427 -0.2,2.12c0,1.84 1.087,2.76 3.26,2.76c2.173,0 3.567,-1.093 4.18,-3.28l-3.28,0l0.8,-4.44l10.6,0l-0.64,3.44l-0.2,1.16c-1.12,6.214 -5.36,9.32 -12.72,9.32Z" style="fill-rule:nonzero;stroke:#eb0000;stroke-opacity:0;stroke-width:0.24px;"/><path d="M244.846,63.25c-2.107,1.76 -5.093,2.64 -8.96,2.64c-3.867,0 -6.547,-0.893 -8.04,-2.68c-1.067,-1.226 -1.6,-2.92 -1.6,-5.08c0,-0.96 0.107,-2.013 0.32,-3.16l3.24,-18.44l7.2,0l-3.24,18.28c-0.107,0.667 -0.16,1.36 -0.16,2.08c0,1.867 1.12,2.8 3.36,2.8c1.333,0 2.4,-0.346 3.2,-1.04c0.8,-0.693 1.36,-1.973 1.68,-3.84l3.24,-18.28l7.2,0l-3.24,18.44c-0.667,3.734 -2.067,6.494 -4.2,8.28Z" style="fill-rule:nonzero;stroke:#eb0000;stroke-opacity:0;stroke-width:0.24px;"/><path d="M270.886,65.33l-18.24,0l5.08,-28.8l7.2,0l-3.96,22.56l11.04,0l-1.12,6.24Z" style="fill-rule:nonzero;stroke:#eb0000;stroke-opacity:0;stroke-width:0.24px;"/><path d="M288.326,65.33l0.24,-6.28l-6.68,0l-1.96,6.28l-7.64,0l10.28,-28.8l13.2,0l0.16,28.8l-7.6,0Zm-1.64,-21.8l-3.16,10.16l5.24,0l0.44,-10.16l-2.52,0Z" style="fill-rule:nonzero;stroke:#eb0000;stroke-opacity:0;stroke-width:0.24px;"/><path d="M316.406,36.53c3.04,0 5.2,0.667 6.48,2c0.96,1.014 1.44,2.294 1.44,3.84c0,0.534 -0.053,1.094 -0.16,1.68l-0.56,3.12c-0.32,1.734 -0.873,3.134 -1.66,4.2c-0.787,1.067 -1.66,1.827 -2.62,2.28l3.64,11.68l-8.08,0l-3.36,-10.76l-2.48,0l-1.64,10.76l-7.68,0l5.08,-28.8l11.6,0Zm-2.52,6.24l-3,0l-1.04,6.96l2.8,0c1.413,0 2.427,-0.34 3.04,-1.02c0.613,-0.68 0.92,-1.58 0.92,-2.7c0,-2.16 -0.907,-3.24 -2.72,-3.24Z" style="fill-rule:nonzero;stroke:#eb0000;stroke-opacity:0;stroke-width:0.24px;"/><path d="M147.406,43.01l-9.84,0l-3.96,22.56l-7.24,0l3.96,-22.56l-9.88,0l1.12,-6.24l26.96,0l-1.12,6.24Z" style="fill-rule:nonzero;stroke:#eb0000;stroke-opacity:0;stroke-width:0.24px;"/><path d="M166.806,65.57l-20.08,0l5.08,-28.8l20.08,0l-1.12,6.24l-12.88,0l-0.92,5.4l10.64,0l-1.12,6.24l-10.64,0l-0.8,4.68l12.88,0l-1.12,6.24Z" style="fill-rule:nonzero;stroke:#eb0000;stroke-opacity:0;stroke-width:0.24px;"/><path d="M198.686,36.77l-5.04,28.8l-7.24,0l-5.04,-15.76l-2.72,15.76l-7.24,0l5.08,-28.8l7.44,0l4.96,14.72l2.6,-14.72l7.2,0Z" style="fill-rule:nonzero;stroke:#eb0000;stroke-opacity:0;stroke-width:0.24px;"/><path d="M209.326,66.13c-3.787,0 -6.4,-0.88 -7.84,-2.64c-0.987,-1.226 -1.48,-2.906 -1.48,-5.04c0,-0.986 0.107,-2.066 0.32,-3.24l1.4,-8c1.253,-7.146 5.627,-10.72 13.12,-10.72c3.093,0 5.44,0.66 7.04,1.98c1.6,1.32 2.4,3.127 2.4,5.42c0,0.934 -0.127,1.88 -0.38,2.84c-0.253,0.96 -0.5,1.68 -0.74,2.16l-0.4,0.72l-7.08,0c0.693,-0.96 1.04,-2.066 1.04,-3.32c0,-2.4 -1,-3.6 -3,-3.6c-2.693,0 -4.307,1.56 -4.84,4.68l-1.36,7.68c-0.133,0.72 -0.2,1.427 -0.2,2.12c0,1.84 1.087,2.76 3.26,2.76c2.173,0 3.567,-1.093 4.18,-3.28l-3.28,0l0.8,-4.44l10.6,0l-0.64,3.44l-0.2,1.16c-1.12,6.214 -5.36,9.32 -12.72,9.32Z" style="fill-rule:nonzero;stroke:#eb0000;stroke-opacity:0;stroke-width:0.24px;"/><path d="M245.086,63.49c-2.107,1.76 -5.093,2.64 -8.96,2.64c-3.867,0 -6.547,-0.893 -8.04,-2.68c-1.067,-1.226 -1.6,-2.92 -1.6,-5.08c0,-0.96 0.107,-2.013 0.32,-3.16l3.24,-18.44l7.2,0l-3.24,18.28c-0.107,0.667 -0.16,1.36 -0.16,2.08c0,1.867 1.12,2.8 3.36,2.8c1.333,0 2.4,-0.346 3.2,-1.04c0.8,-0.693 1.36,-1.973 1.68,-3.84l3.24,-18.28l7.2,0l-3.24,18.44c-0.667,3.734 -2.067,6.494 -4.2,8.28Z" style="fill-rule:nonzero;stroke:#eb0000;stroke-opacity:0;stroke-width:0.24px;"/><path d="M271.126,65.57l-18.24,0l5.08,-28.8l7.2,0l-3.96,22.56l11.04,0l-1.12,6.24Z" style="fill-rule:nonzero;stroke:#eb0000;stroke-opacity:0;stroke-width:0.24px;"/><path d="M288.566,65.57l0.24,-6.28l-6.68,0l-1.96,6.28l-7.64,0l10.28,-28.8l13.2,0l0.16,28.8l-7.6,0Zm-1.64,-21.8l-3.16,10.16l5.24,0l0.44,-10.16l-2.52,0Z" style="fill-rule:nonzero;stroke:#eb0000;stroke-opacity:0;stroke-width:0.24px;"/><path d="M316.646,36.77c3.04,0 5.2,0.667 6.48,2c0.96,1.014 1.44,2.294 1.44,3.84c0,0.534 -0.053,1.094 -0.16,1.68l-0.56,3.12c-0.32,1.734 -0.873,3.134 -1.66,4.2c-0.787,1.067 -1.66,1.827 -2.62,2.28l3.64,11.68l-8.08,0l-3.36,-10.76l-2.48,0l-1.64,10.76l-7.68,0l5.08,-28.8l11.6,0Zm-2.52,6.24l-3,0l-1.04,6.96l2.8,0c1.413,0 2.427,-0.34 3.04,-1.02c0.613,-0.68 0.92,-1.58 0.92,-2.7c0,-2.16 -0.907,-3.24 -2.72,-3.24Z" style="fill-rule:nonzero;stroke:#eb0000;stroke-opacity:0;stroke-width:0.24px;"/><path d="M147.646,43.25l-9.84,0l-3.96,22.56l-7.24,0l3.96,-22.56l-9.88,0l1.12,-6.24l26.96,0l-1.12,6.24Z" style="fill-rule:nonzero;stroke:#eb0000;stroke-opacity:0;stroke-width:0.24px;"/><path d="M167.046,65.81l-20.08,0l5.08,-28.8l20.08,0l-1.12,6.24l-12.88,0l-0.92,5.4l10.64,0l-1.12,6.24l-10.64,0l-0.8,4.68l12.88,0l-1.12,6.24Z" style="fill-rule:nonzero;stroke:#eb0000;stroke-opacity:0;stroke-width:0.24px;"/><path d="M198.926,37.01l-5.04,28.8l-7.24,0l-5.04,-15.76l-2.72,15.76l-7.24,0l5.08,-28.8l7.44,0l4.96,14.72l2.6,-14.72l7.2,0Z" style="fill-rule:nonzero;stroke:#eb0000;stroke-opacity:0;stroke-width:0.24px;"/><path d="M209.566,66.37c-3.787,0 -6.4,-0.88 -7.84,-2.64c-0.987,-1.226 -1.48,-2.906 -1.48,-5.04c0,-0.986 0.107,-2.066 0.32,-3.24l1.4,-8c1.253,-7.146 5.627,-10.72 13.12,-10.72c3.093,0 5.44,0.66 7.04,1.98c1.6,1.32 2.4,3.127 2.4,5.42c0,0.934 -0.127,1.88 -0.38,2.84c-0.253,0.96 -0.5,1.68 -0.74,2.16l-0.4,0.72l-7.08,0c0.693,-0.96 1.04,-2.066 1.04,-3.32c0,-2.4 -1,-3.6 -3,-3.6c-2.693,0 -4.307,1.56 -4.84,4.68l-1.36,7.68c-0.133,0.72 -0.2,1.427 -0.2,2.12c0,1.84 1.087,2.76 3.26,2.76c2.173,0 3.567,-1.093 4.18,-3.28l-3.28,0l0.8,-4.44l10.6,0l-0.64,3.44l-0.2,1.16c-1.12,6.214 -5.36,9.32 -12.72,9.32Z" style="fill-rule:nonzero;stroke:#eb0000;stroke-opacity:0;stroke-width:0.24px;"/><path d="M245.326,63.73c-2.107,1.76 -5.093,2.64 -8.96,2.64c-3.867,0 -6.547,-0.893 -8.04,-2.68c-1.067,-1.226 -1.6,-2.92 -1.6,-5.08c0,-0.96 0.107,-2.013 0.32,-3.16l3.24,-18.44l7.2,0l-3.24,18.28c-0.107,0.667 -0.16,1.36 -0.16,2.08c0,1.867 1.12,2.8 3.36,2.8c1.333,0 2.4,-0.346 3.2,-1.04c0.8,-0.693 1.36,-1.973 1.68,-3.84l3.24,-18.28l7.2,0l-3.24,18.44c-0.667,3.734 -2.067,6.494 -4.2,8.28Z" style="fill-rule:nonzero;stroke:#eb0000;stroke-opacity:0;stroke-width:0.24px;"/><path d="M271.366,65.81l-18.24,0l5.08,-28.8l7.2,0l-3.96,22.56l11.04,0l-1.12,6.24Z" style="fill-rule:nonzero;stroke:#eb0000;stroke-opacity:0;stroke-width:0.24px;"/><path d="M288.806,65.81l0.24,-6.28l-6.68,0l-1.96,6.28l-7.64,0l10.28,-28.8l13.2,0l0.16,28.8l-7.6,0Zm-1.64,-21.8l-3.16,10.16l5.24,0l0.44,-10.16l-2.52,0Z" style="fill-rule:nonzero;stroke:#eb0000;stroke-opacity:0;stroke-width:0.24px;"/><path d="M316.886,37.01c3.04,0 5.2,0.667 6.48,2c0.96,1.014 1.44,2.294 1.44,3.84c0,0.534 -0.053,1.094 -0.16,1.68l-0.56,3.12c-0.32,1.734 -0.873,3.134 -1.66,4.2c-0.787,1.067 -1.66,1.827 -2.62,2.28l3.64,11.68l-8.08,0l-3.36,-10.76l-2.48,0l-1.64,10.76l-7.68,0l5.08,-28.8l11.6,0Zm-2.52,6.24l-3,0l-1.04,6.96l2.8,0c1.413,0 2.427,-0.34 3.04,-1.02c0.613,-0.68 0.92,-1.58 0.92,-2.7c0,-2.16 -0.907,-3.24 -2.72,-3.24Z" style="fill-rule:nonzero;stroke:#eb0000;stroke-opacity:0;stroke-width:0.24px;"/><path d="M147.406,43.01l-9.84,0l-3.96,22.56l-7.24,0l3.96,-22.56l-9.88,0l1.12,-6.24l26.96,0l-1.12,6.24Z" style="fill-rule:nonzero;stroke:#eb0000;stroke-opacity:0;stroke-width:0.24px;"/><path d="M166.806,65.57l-20.08,0l5.08,-28.8l20.08,0l-1.12,6.24l-12.88,0l-0.92,5.4l10.64,0l-1.12,6.24l-10.64,0l-0.8,4.68l12.88,0l-1.12,6.24Z" style="fill-rule:nonzero;stroke:#eb0000;stroke-opacity:0;stroke-width:0.24px;"/><path d="M198.686,36.77l-5.04,28.8l-7.24,0l-5.04,-15.76l-2.72,15.76l-7.24,0l5.08,-28.8l7.44,0l4.96,14.72l2.6,-14.72l7.2,0Z" style="fill-rule:nonzero;stroke:#eb0000;stroke-opacity:0;stroke-width:0.24px;"/><path d="M209.326,66.13c-3.787,0 -6.4,-0.88 -7.84,-2.64c-0.987,-1.226 -1.48,-2.906 -1.48,-5.04c0,-0.986 0.107,-2.066 0.32,-3.24l1.4,-8c1.253,-7.146 5.627,-10.72 13.12,-10.72c3.093,0 5.44,0.66 7.04,1.98c1.6,1.32 2.4,3.127 2.4,5.42c0,0.934 -0.127,1.88 -0.38,2.84c-0.253,0.96 -0.5,1.68 -0.74,2.16l-0.4,0.72l-7.08,0c0.693,-0.96 1.04,-2.066 1.04,-3.32c0,-2.4 -1,-3.6 -3,-3.6c-2.693,0 -4.307,1.56 -4.84,4.68l-1.36,7.68c-0.133,0.72 -0.2,1.427 -0.2,2.12c0,1.84 1.087,2.76 3.26,2.76c2.173,0 3.567,-1.093 4.18,-3.28l-3.28,0l0.8,-4.44l10.6,0l-0.64,3.44l-0.2,1.16c-1.12,6.214 -5.36,9.32 -12.72,9.32Z" style="fill-rule:nonzero;stroke:#eb0000;stroke-opacity:0;stroke-width:0.24px;"/><path d="M245.086,63.49c-2.107,1.76 -5.093,2.64 -8.96,2.64c-3.867,0 -6.547,-0.893 -8.04,-2.68c-1.067,-1.226 -1.6,-2.92 -1.6,-5.08c0,-0.96 0.107,-2.013 0.32,-3.16l3.24,-18.44l7.2,0l-3.24,18.28c-0.107,0.667 -0.16,1.36 -0.16,2.08c0,1.867 1.12,2.8 3.36,2.8c1.333,0 2.4,-0.346 3.2,-1.04c0.8,-0.693 1.36,-1.973 1.68,-3.84l3.24,-18.28l7.2,0l-3.24,18.44c-0.667,3.734 -2.067,6.494 -4.2,8.28Z" style="fill-rule:nonzero;stroke:#eb0000;stroke-opacity:0;stroke-width:0.24px;"/><path d="M271.126,65.57l-18.24,0l5.08,-28.8l7.2,0l-3.96,22.56l11.04,0l-1.12,6.24Z" style="fill-rule:nonzero;stroke:#eb0000;stroke-opacity:0;stroke-width:0.24px;"/><path d="M288.566,65.57l0.24,-6.28l-6.68,0l-1.96,6.28l-7.64,0l10.28,-28.8l13.2,0l0.16,28.8l-7.6,0Zm-1.64,-21.8l-3.16,10.16l5.24,0l0.44,-10.16l-2.52,0Z" style="fill-rule:nonzero;stroke:#eb0000;stroke-opacity:0;stroke-width:0.24px;"/><path d="M316.646,36.77c3.04,0 5.2,0.667 6.48,2c0.96,1.014 1.44,2.294 1.44,3.84c0,0.534 -0.053,1.094 -0.16,1.68l-0.56,3.12c-0.32,1.734 -0.873,3.134 -1.66,4.2c-0.787,1.067 -1.66,1.827 -2.62,2.28l3.64,11.68l-8.08,0l-3.36,-10.76l-2.48,0l-1.64,10.76l-7.68,0l5.08,-28.8l11.6,0Zm-2.52,6.24l-3,0l-1.04,6.96l2.8,0c1.413,0 2.427,-0.34 3.04,-1.02c0.613,-0.68 0.92,-1.58 0.92,-2.7c0,-2.16 -0.907,-3.24 -2.72,-3.24Z" style="fill-rule:nonzero;stroke:#eb0000;stroke-opacity:0;stroke-width:0.24px;"/><path d="M146.926,42.53l-9.84,0l-3.96,22.56l-7.24,0l3.96,-22.56l-9.88,0l1.12,-6.24l26.96,0l-1.12,6.24Z" style="fill-rule:nonzero;stroke:#eb0000;stroke-opacity:0;stroke-width:0.24px;"/><path d="M166.326,65.09l-20.08,0l5.08,-28.8l20.08,0l-1.12,6.24l-12.88,0l-0.92,5.4l10.64,0l-1.12,6.24l-10.64,0l-0.8,4.68l12.88,0l-1.12,6.24Z" style="fill-rule:nonzero;stroke:#eb0000;stroke-opacity:0;stroke-width:0.24px;"/><path d="M198.206,36.29l-5.04,28.8l-7.24,0l-5.04,-15.76l-2.72,15.76l-7.24,0l5.08,-28.8l7.44,0l4.96,14.72l2.6,-14.72l7.2,0Z" style="fill-rule:nonzero;stroke:#eb0000;stroke-opacity:0;stroke-width:0.24px;"/><path d="M208.846,65.65c-3.787,0 -6.4,-0.88 -7.84,-2.64c-0.987,-1.226 -1.48,-2.906 -1.48,-5.04c0,-0.986 0.107,-2.066 0.32,-3.24l1.4,-8c1.253,-7.146 5.627,-10.72 13.12,-10.72c3.093,0 5.44,0.66 7.04,1.98c1.6,1.32 2.4,3.127 2.4,5.42c0,0.934 -0.127,1.88 -0.38,2.84c-0.253,0.96 -0.5,1.68 -0.74,2.16l-0.4,0.72l-7.08,0c0.693,-0.96 1.04,-2.066 1.04,-3.32c0,-2.4 -1,-3.6 -3,-3.6c-2.693,0 -4.307,1.56 -4.84,4.68l-1.36,7.68c-0.133,0.72 -0.2,1.427 -0.2,2.12c0,1.84 1.087,2.76 3.26,2.76c2.173,0 3.567,-1.093 4.18,-3.28l-3.28,0l0.8,-4.44l10.6,0l-0.64,3.44l-0.2,1.16c-1.12,6.214 -5.36,9.32 -12.72,9.32Z" style="fill-rule:nonzero;stroke:#eb0000;stroke-opacity:0;stroke-width:0.24px;"/><path d="M244.606,63.01c-2.107,1.76 -5.093,2.64 -8.96,2.64c-3.867,0 -6.547,-0.893 -8.04,-2.68c-1.067,-1.226 -1.6,-2.92 -1.6,-5.08c0,-0.96 0.107,-2.013 0.32,-3.16l3.24,-18.44l7.2,0l-3.24,18.28c-0.107,0.667 -0.16,1.36 -0.16,2.08c0,1.867 1.12,2.8 3.36,2.8c1.333,0 2.4,-0.346 3.2,-1.04c0.8,-0.693 1.36,-1.973 1.68,-3.84l3.24,-18.28l7.2,0l-3.24,18.44c-0.667,3.734 -2.067,6.494 -4.2,8.28Z" style="fill-rule:nonzero;stroke:#eb0000;stroke-opacity:0;stroke-width:0.24px;"/><path d="M270.646,65.09l-18.24,0l5.08,-28.8l7.2,0l-3.96,22.56l11.04,0l-1.12,6.24Z" style="fill-rule:nonzero;stroke:#eb0000;stroke-opacity:0;stroke-width:0.24px;"/><path d="M288.086,65.09l0.24,-6.28l-6.68,0l-1.96,6.28l-7.64,0l10.28,-28.8l13.2,0l0.16,28.8l-7.6,0Zm-1.64,-21.8l-3.16,10.16l5.24,0l0.44,-10.16l-2.52,0Z" style="fill-rule:nonzero;stroke:#eb0000;stroke-opacity:0;stroke-width:0.24px;"/><path d="M316.166,36.29c3.04,0 5.2,0.667 6.48,2c0.96,1.014 1.44,2.294 1.44,3.84c0,0.534 -0.053,1.094 -0.16,1.68l-0.56,3.12c-0.32,1.734 -0.873,3.134 -1.66,4.2c-0.787,1.067 -1.66,1.827 -2.62,2.28l3.64,11.68l-8.08,0l-3.36,-10.76l-2.48,0l-1.64,10.76l-7.68,0l5.08,-28.8l11.6,0Zm-2.52,6.24l-3,0l-1.04,6.96l2.8,0c1.413,0 2.427,-0.34 3.04,-1.02c0.613,-0.68 0.92,-1.58 0.92,-2.7c0,-2.16 -0.907,-3.24 -2.72,-3.24Z" style="fill-rule:nonzero;stroke:#eb0000;stroke-opacity:0;stroke-width:0.24px;"/><path d="M146.686,42.29l-9.84,0l-3.96,22.56l-7.24,0l3.96,-22.56l-9.88,0l1.12,-6.24l26.96,0l-1.12,6.24Z" style="fill-rule:nonzero;stroke:#eb0000;stroke-opacity:0;stroke-width:0.24px;"/><path d="M166.086,64.85l-20.08,0l5.08,-28.8l20.08,0l-1.12,6.24l-12.88,0l-0.92,5.4l10.64,0l-1.12,6.24l-10.64,0l-0.8,4.68l12.88,0l-1.12,6.24Z" style="fill-rule:nonzero;stroke:#eb0000;stroke-opacity:0;stroke-width:0.24px;"/><path d="M197.966,36.05l-5.04,28.8l-7.24,0l-5.04,-15.76l-2.72,15.76l-7.24,0l5.08,-28.8l7.44,0l4.96,14.72l2.6,-14.72l7.2,0Z" style="fill-rule:nonzero;stroke:#eb0000;stroke-opacity:0;stroke-width:0.24px;"/><path d="M208.606,65.41c-3.787,0 -6.4,-0.88 -7.84,-2.64c-0.987,-1.226 -1.48,-2.906 -1.48,-5.04c0,-0.986 0.107,-2.066 0.32,-3.24l1.4,-8c1.253,-7.146 5.627,-10.72 13.12,-10.72c3.093,0 5.44,0.66 7.04,1.98c1.6,1.32 2.4,3.127 2.4,5.42c0,0.934 -0.127,1.88 -0.38,2.84c-0.253,0.96 -0.5,1.68 -0.74,2.16l-0.4,0.72l-7.08,0c0.693,-0.96 1.04,-2.066 1.04,-3.32c0,-2.4 -1,-3.6 -3,-3.6c-2.693,0 -4.307,1.56 -4.84,4.68l-1.36,7.68c-0.133,0.72 -0.2,1.427 -0.2,2.12c0,1.84 1.087,2.76 3.26,2.76c2.173,0 3.567,-1.093 4.18,-3.28l-3.28,0l0.8,-4.44l10.6,0l-0.64,3.44l-0.2,1.16c-1.12,6.214 -5.36,9.32 -12.72,9.32Z" style="fill-rule:nonzero;stroke:#eb0000;stroke-opacity:0;stroke-width:0.24px;"/><path d="M244.366,62.77c-2.107,1.76 -5.093,2.64 -8.96,2.64c-3.867,0 -6.547,-0.893 -8.04,-2.68c-1.067,-1.226 -1.6,-2.92 -1.6,-5.08c0,-0.96 0.107,-2.013 0.32,-3.16l3.24,-18.44l7.2,0l-3.24,18.28c-0.107,0.667 -0.16,1.36 -0.16,2.08c0,1.867 1.12,2.8 3.36,2.8c1.333,0 2.4,-0.346 3.2,-1.04c0.8,-0.693 1.36,-1.973 1.68,-3.84l3.24,-18.28l7.2,0l-3.24,18.44c-0.667,3.734 -2.067,6.494 -4.2,8.28Z" style="fill-rule:nonzero;stroke:#eb0000;stroke-opacity:0;stroke-width:0.24px;"/><path d="M270.406,64.85l-18.24,0l5.08,-28.8l7.2,0l-3.96,22.56l11.04,0l-1.12,6.24Z" style="fill-rule:nonzero;stroke:#eb0000;stroke-opacity:0;stroke-width:0.24px;"/><path d="M287.846,64.85l0.24,-6.28l-6.68,0l-1.96,6.28l-7.64,0l10.28,-28.8l13.2,0l0.16,28.8l-7.6,0Zm-1.64,-21.8l-3.16,10.16l5.24,0l0.44,-10.16l-2.52,0Z" style="fill-rule:nonzero;stroke:#eb0000;stroke-opacity:0;stroke-width:0.24px;"/><path d="M315.926,36.05c3.04,0 5.2,0.667 6.48,2c0.96,1.014 1.44,2.294 1.44,3.84c0,0.534 -0.053,1.094 -0.16,1.68l-0.56,3.12c-0.32,1.734 -0.873,3.134 -1.66,4.2c-0.787,1.067 -1.66,1.827 -2.62,2.28l3.64,11.68l-8.08,0l-3.36,-10.76l-2.48,0l-1.64,10.76l-7.68,0l5.08,-28.8l11.6,0Zm-2.52,6.24l-3,0l-1.04,6.96l2.8,0c1.413,0 2.427,-0.34 3.04,-1.02c0.613,-0.68 0.92,-1.58 0.92,-2.7c0,-2.16 -0.907,-3.24 -2.72,-3.24Z" style="fill-rule:nonzero;stroke:#eb0000;stroke-opacity:0;stroke-width:0.24px;"/><path d="M146.686,42.29l-9.84,0l-3.96,22.56l-7.24,0l3.96,-22.56l-9.88,0l1.12,-6.24l26.96,0l-1.12,6.24Z" style="fill-rule:nonzero;stroke:#eb0000;stroke-opacity:0;stroke-width:0.24px;"/><path d="M166.086,64.85l-20.08,0l5.08,-28.8l20.08,0l-1.12,6.24l-12.88,0l-0.92,5.4l10.64,0l-1.12,6.24l-10.64,0l-0.8,4.68l12.88,0l-1.12,6.24Z" style="fill-rule:nonzero;stroke:#eb0000;stroke-opacity:0;stroke-width:0.24px;"/><path d="M197.966,36.05l-5.04,28.8l-7.24,0l-5.04,-15.76l-2.72,15.76l-7.24,0l5.08,-28.8l7.44,0l4.96,14.72l2.6,-14.72l7.2,0Z" style="fill-rule:nonzero;stroke:#eb0000;stroke-opacity:0;stroke-width:0.24px;"/><path d="M208.606,65.41c-3.787,0 -6.4,-0.88 -7.84,-2.64c-0.987,-1.226 -1.48,-2.906 -1.48,-5.04c0,-0.986 0.107,-2.066 0.32,-3.24l1.4,-8c1.253,-7.146 5.627,-10.72 13.12,-10.72c3.093,0 5.44,0.66 7.04,1.98c1.6,1.32 2.4,3.127 2.4,5.42c0,0.934 -0.127,1.88 -0.38,2.84c-0.253,0.96 -0.5,1.68 -0.74,2.16l-0.4,0.72l-7.08,0c0.693,-0.96 1.04,-2.066 1.04,-3.32c0,-2.4 -1,-3.6 -3,-3.6c-2.693,0 -4.307,1.56 -4.84,4.68l-1.36,7.68c-0.133,0.72 -0.2,1.427 -0.2,2.12c0,1.84 1.087,2.76 3.26,2.76c2.173,0 3.567,-1.093 4.18,-3.28l-3.28,0l0.8,-4.44l10.6,0l-0.64,3.44l-0.2,1.16c-1.12,6.214 -5.36,9.32 -12.72,9.32Z" style="fill-rule:nonzero;stroke:#eb0000;stroke-opacity:0;stroke-width:0.24px;"/><path d="M244.366,62.77c-2.107,1.76 -5.093,2.64 -8.96,2.64c-3.867,0 -6.547,-0.893 -8.04,-2.68c-1.067,-1.226 -1.6,-2.92 -1.6,-5.08c0,-0.96 0.107,-2.013 0.32,-3.16l3.24,-18.44l7.2,0l-3.24,18.28c-0.107,0.667 -0.16,1.36 -0.16,2.08c0,1.867 1.12,2.8 3.36,2.8c1.333,0 2.4,-0.346 3.2,-1.04c0.8,-0.693 1.36,-1.973 1.68,-3.84l3.24,-18.28l7.2,0l-3.24,18.44c-0.667,3.734 -2.067,6.494 -4.2,8.28Z" style="fill-rule:nonzero;stroke:#eb0000;stroke-opacity:0;stroke-width:0.24px;"/><path d="M270.406,64.85l-18.24,0l5.08,-28.8l7.2,0l-3.96,22.56l11.04,0l-1.12,6.24Z" style="fill-rule:nonzero;stroke:#eb0000;stroke-opacity:0;stroke-width:0.24px;"/><path d="M287.846,64.85l0.24,-6.28l-6.68,0l-1.96,6.28l-7.64,0l10.28,-28.8l13.2,0l0.16,28.8l-7.6,0Zm-1.64,-21.8l-3.16,10.16l5.24,0l0.44,-10.16l-2.52,0Z" style="fill-rule:nonzero;stroke:#eb0000;stroke-opacity:0;stroke-width:0.24px;"/><path d="M315.926,36.05c3.04,0 5.2,0.667 6.48,2c0.96,1.014 1.44,2.294 1.44,3.84c0,0.534 -0.053,1.094 -0.16,1.68l-0.56,3.12c-0.32,1.734 -0.873,3.134 -1.66,4.2c-0.787,1.067 -1.66,1.827 -2.62,2.28l3.64,11.68l-8.08,0l-3.36,-10.76l-2.48,0l-1.64,10.76l-7.68,0l5.08,-28.8l11.6,0Zm-2.52,6.24l-3,0l-1.04,6.96l2.8,0c1.413,0 2.427,-0.34 3.04,-1.02c0.613,-0.68 0.92,-1.58 0.92,-2.7c0,-2.16 -0.907,-3.24 -2.72,-3.24Z" style="fill-rule:nonzero;stroke:#eb0000;stroke-opacity:0;stroke-width:0.24px;"/><path d="M146.198,41.637l-9.84,0l-3.96,22.56l-7.24,0l3.96,-22.56l-9.88,0l1.12,-6.24l26.96,0l-1.12,6.24Z" style="fill:#fff;fill-rule:nonzero;"/><path d="M165.598,64.197l-20.08,0l5.08,-28.8l20.08,0l-1.12,6.24l-12.88,0l-0.92,5.4l10.64,0l-1.12,6.24l-10.64,0l-0.8,4.68l12.88,0l-1.12,6.24Z" style="fill:#fff;fill-rule:nonzero;"/><path d="M197.478,35.397l-5.04,28.8l-7.24,0l-5.04,-15.76l-2.72,15.76l-7.24,0l5.08,-28.8l7.44,0l4.96,14.72l2.6,-14.72l7.2,0Z" style="fill:#fff;fill-rule:nonzero;"/><path d="M208.118,64.757c-3.787,0 -6.4,-0.88 -7.84,-2.64c-0.987,-1.227 -1.48,-2.907 -1.48,-5.04c0,-0.987 0.106,-2.067 0.32,-3.24l1.4,-8c1.253,-7.147 5.626,-10.72 13.12,-10.72c3.093,0 5.44,0.66 7.04,1.98c1.6,1.32 2.4,3.126 2.4,5.42c0,0.933 -0.127,1.88 -0.38,2.84c-0.254,0.96 -0.5,1.68 -0.74,2.16l-0.4,0.72l-7.08,0c0.693,-0.96 1.04,-2.067 1.04,-3.32c0,-2.4 -1,-3.6 -3,-3.6c-2.694,0 -4.307,1.56 -4.84,4.68l-1.36,7.68c-0.134,0.72 -0.2,1.426 -0.2,2.12c0,1.84 1.086,2.76 3.26,2.76c2.173,0 3.566,-1.094 4.18,-3.28l-3.28,0l0.8,-4.44l10.6,0l-0.64,3.44l-0.2,1.16c-1.12,6.213 -5.36,9.32 -12.72,9.32Z" style="fill:#fff;fill-rule:nonzero;"/><path d="M243.878,62.117c-2.107,1.76 -5.094,2.64 -8.96,2.64c-3.867,0 -6.547,-0.894 -8.04,-2.68c-1.067,-1.227 -1.6,-2.92 -1.6,-5.08c0,-0.96 0.106,-2.014 0.32,-3.16l3.24,-18.44l7.2,0l-3.24,18.28c-0.107,0.666 -0.16,1.36 -0.16,2.08c0,1.866 1.12,2.8 3.36,2.8c1.333,0 2.4,-0.347 3.2,-1.04c0.8,-0.694 1.36,-1.974 1.68,-3.84l3.24,-18.28l7.2,0l-3.24,18.44c-0.667,3.733 -2.067,6.493 -4.2,8.28Z" style="fill:#fff;fill-rule:nonzero;"/><path d="M269.918,64.197l-18.24,0l5.08,-28.8l7.2,0l-3.96,22.56l11.04,0l-1.12,6.24Z" style="fill:#fff;fill-rule:nonzero;"/><path d="M287.358,64.197l0.24,-6.28l-6.68,0l-1.96,6.28l-7.64,0l10.28,-28.8l13.2,0l0.16,28.8l-7.6,0Zm-1.64,-21.8l-3.16,10.16l5.24,0l0.44,-10.16l-2.52,0Z" style="fill:#fff;fill-rule:nonzero;"/><path d="M315.438,35.397c3.04,0 5.2,0.666 6.48,2c0.96,1.013 1.44,2.293 1.44,3.84c0,0.533 -0.054,1.093 -0.16,1.68l-0.56,3.12c-0.32,1.733 -0.874,3.133 -1.66,4.2c-0.787,1.066 -1.66,1.826 -2.62,2.28l3.64,11.68l-8.08,0l-3.36,-10.76l-2.48,0l-1.64,10.76l-7.68,0l5.08,-28.8l11.6,0Zm-2.52,6.24l-3,0l-1.04,6.96l2.8,0c1.413,0 2.426,-0.34 3.04,-1.02c0.613,-0.68 0.92,-1.58 0.92,-2.7c0,-2.16 -0.907,-3.24 -2.72,-3.24Z" style="fill:#fff;fill-rule:nonzero;"/></g><g><g><g><path d="M102.759,14.714c0,-5.459 -4.432,-9.891 -9.891,-9.891l-75.702,0c-5.459,0 -9.892,4.432 -9.892,9.891l0,75.422c0,5.459 4.816,2.925 10.275,2.925l16.983,-14.079c2.292,0 0.784,-5.341 2.444,-7.361c2.296,-2.792 7.363,-2.833 7.363,-6.001c56.187,-12.501 60.941,-31.261 58.42,-50.906Z" style="fill:#e26207;"/><path d="M102.646,36.548c0,-5.768 -4.683,-10.452 -10.452,-10.452l-17.874,24.476c-5.769,0 -16.27,3.766 -16.27,9.535l-21.714,12.542c0,5.768 -23.979,27.317 -18.21,27.317l74.068,0.039c5.769,0 10.452,-4.683 10.452,-10.452l0,-53.005Z" style="fill:#ee8133;"/></g><g><g><path d="M68.383,5.911c-22.517,12.248 -20.085,35.74 -27.436,50.232c-7.301,14.612 -9.761,14.411 -9.567,14.496c-1.162,-0.344 -1.693,-0.333 -1.76,-0.243c-0.348,0.046 -0.742,0.32 -1.196,0.891l-0.758,0.841l5.331,5.381l-1.094,1.016l-5.454,-5.28l-2.284,2.299l5.613,5.566l-0.851,0.934l-5.732,-5.572l-2.322,2.454c0.914,0.885 3.608,3.458 5.406,5.244l-0.995,1.272l-5.485,-5.601l-2.228,2.298l5.22,5.589l-0.923,1.133l-5.484,-5.451c0,0 -2.223,2.164 -2.159,2.196c0.171,0.085 5.366,5.21 5.366,5.21l-1.241,1.384l-5.399,-5.435c0,0 -3.241,2.431 -5.791,3.019c-0.565,2.397 0.045,9.706 0.045,9.706l10.086,0.315c0,0 0.39,-3.548 7.371,-9.618c6.591,-6.291 10.988,-10.985 11.213,-11.249c1.495,-1.517 1.167,-2.042 0.792,-3.321c0.453,-0.399 1.135,-1.066 2.349,-2.152c2.21,-1.978 6.802,-5.214 19.35,-9.836c19.848,-6.121 14.949,-2.192 27.875,-9.251c5.104,-2.787 12.259,-10.504 15.267,-16.49c5.308,-10.562 5.33,-22.927 1.975,-27.678c-2.163,-3.062 -4.811,-5.849 -10.788,-7.301c-6.262,-1.521 -12.856,-3.229 -24.312,3.002Zm1.035,4.673l0,0Z" style="fill:#424242;fill-rule:nonzero;"/><path d="M13.121,86.596l5.22,5.254l0.919,-1.023l-0.061,-0.06l-0.257,-0.253l-0.333,-0.329l-0.396,-0.389l-0.443,-0.435l-0.474,-0.465l-0.491,-0.482l-0.248,-0.242l-0.246,-0.24l-0.243,-0.237l-0.237,-0.231l-0.231,-0.225l-0.221,-0.215l-0.211,-0.204l-0.199,-0.191l-0.183,-0.177l-0.168,-0.16l-0.077,-0.073l-0.072,-0.069l-0.067,-0.063l-0.061,-0.058l-0.056,-0.052l-0.05,-0.046l-0.044,-0.04l-0.037,-0.033l-0.03,-0.027l-0.011,-0.01l-0.01,-0.007l-0.006,-0.005l-0.002,-0.002l-0.011,-0.008l-0.001,0l-0.058,-0.06l0,-0.001l-0.032,-0.07l-0.001,-0.001l-0.008,-0.056l0,-0.001l0.005,-0.056l0,-0.002l0.012,-0.04l0.002,-0.004l0.009,-0.021l0.006,-0.011l0.01,-0.016l0.008,-0.013l0.009,-0.013l0.016,-0.021l0.017,-0.022l0.02,-0.023l0.021,-0.024l0.024,-0.026l0.025,-0.029l0.028,-0.03l0.029,-0.032l0.032,-0.033l0.033,-0.036l0.072,-0.075l0.079,-0.082l0.085,-0.087l0.09,-0.091l0.094,-0.095l0.097,-0.098l0.1,-0.1l0.102,-0.102l0.102,-0.102l0.103,-0.102l0.102,-0.102l0.2,-0.197l0.186,-0.183l0.168,-0.165l0.142,-0.139l0.109,-0.107l0.096,-0.093l0.077,-0.051l0.091,-0.017l0.091,0.018l0.077,0.052l5.296,5.264l0.623,-0.765l-5.076,-5.436l-0.049,-0.077l-0.016,-0.089l0.018,-0.089l0.05,-0.076l2.228,-2.298l0.078,-0.054l0.093,-0.019l0.094,0.018l0.079,0.054l5.293,5.405l0.694,-0.887l-0.019,-0.02l-0.176,-0.173l-0.18,-0.178l-0.183,-0.18l-0.187,-0.184l-0.19,-0.186l-0.192,-0.187l-0.194,-0.189l-0.196,-0.191l-0.196,-0.19l-0.196,-0.191l-0.197,-0.19l-0.39,-0.378l-0.384,-0.371l-0.374,-0.361l-0.359,-0.346l-0.661,-0.636l-0.556,-0.535l-0.23,-0.221l-0.192,-0.186l-0.053,-0.076l-0.02,-0.091l0.016,-0.091l0.05,-0.079l2.321,-2.454l0.077,-0.054l0.093,-0.021l0.092,0.017l0.08,0.051l5.555,5.399l0.529,-0.58l-5.45,-5.405l-0.053,-0.077l-0.018,-0.092l0.017,-0.092l0.052,-0.078l2.285,-2.299l0.077,-0.052l0.091,-0.019l0.091,0.017l0.078,0.051l5.29,5.121l0.746,-0.692l-5.156,-5.205l-0.05,-0.075l-0.02,-0.088l0.015,-0.09l0.047,-0.077l0.753,-0.835l0.017,-0.022l0.022,-0.027l0.022,-0.027l0.022,-0.026l0.022,-0.026l0.022,-0.026l0.022,-0.025l0.021,-0.025l0.022,-0.024l0.022,-0.024l0.021,-0.024l0.022,-0.023l0.021,-0.023l0.021,-0.022l0.022,-0.022l0.021,-0.022l0.021,-0.021l0.022,-0.021l0.021,-0.02l0.021,-0.02l0.021,-0.02l0.021,-0.019l0.021,-0.019l0.021,-0.019l0.021,-0.018l0.021,-0.018l0.021,-0.017l0.021,-0.017l0.021,-0.017l0.021,-0.016l0.021,-0.016l0.021,-0.015l0.02,-0.015l0.021,-0.015l0.021,-0.014l0.021,-0.014l0.021,-0.014l0.021,-0.013l0.02,-0.013l0.021,-0.012l0.021,-0.012l0.021,-0.012l0.021,-0.012l0.02,-0.01l0.021,-0.011l0.021,-0.01l0.021,-0.01l0.021,-0.009l0.021,-0.009l0.021,-0.009l0.021,-0.008l0.021,-0.008l0.021,-0.008l0.021,-0.007l0.021,-0.006l0.021,-0.007l0.021,-0.005l0.021,-0.006l0.021,-0.005l0.021,-0.005l0.019,-0.003l0.005,-0.003l0.02,-0.01l0.019,-0.009l0.018,-0.007l0.019,-0.006l0.018,-0.005l0.018,-0.005l0.018,-0.004l0.018,-0.003l0.019,-0.003l0.019,-0.003l0.019,-0.002l0.019,-0.002l0.02,-0.002l0.021,-0.001l0.021,-0.001l0.021,0l0.022,-0.001l0.023,0l0.023,0l0.024,0.001l0.025,0.001l0.025,0.001l0.026,0.002l0.026,0.001l0.027,0.002l0.028,0.003l0.029,0.003l0.029,0.003l0.03,0.003l0.031,0.004l0.031,0.004l0.033,0.004l0.033,0.005l0.033,0.005l0.035,0.006l0.035,0.006l0.037,0.006l0.037,0.007l0.037,0.007l0.039,0.007l0.039,0.008l0.041,0.009l0.041,0.008l0.042,0.009l0.042,0.01l0.044,0.01l0.044,0.01l0.046,0.011l0.046,0.011l0.047,0.012l0.048,0.012l0.048,0.013l0.05,0.013l0.05,0.014l0.052,0.014l0.052,0.015l0.046,0.013l0.021,-0.011l0.027,-0.014l0.014,-0.008l0.016,-0.008l0.017,-0.01l0.018,-0.01l0.019,-0.011l0.02,-0.012l0.021,-0.013l0.023,-0.014l0.023,-0.015l0.025,-0.017l0.026,-0.017l0.027,-0.019l0.028,-0.02l0.03,-0.021l0.03,-0.023l0.032,-0.024l0.034,-0.025l0.034,-0.027l0.036,-0.029l0.037,-0.03l0.038,-0.032l0.04,-0.033l0.04,-0.035l0.042,-0.037l0.044,-0.039l0.044,-0.04l0.046,-0.043l0.048,-0.044l0.048,-0.047l0.05,-0.048l0.051,-0.05l0.053,-0.053l0.053,-0.055l0.056,-0.057l0.056,-0.059l0.058,-0.061l0.059,-0.064l0.061,-0.066l0.062,-0.069l0.063,-0.071l0.065,-0.074l0.066,-0.076l0.067,-0.078l0.069,-0.082l0.07,-0.084l0.072,-0.086l0.073,-0.09l0.075,-0.092l0.075,-0.095l0.078,-0.098l0.078,-0.101l0.081,-0.104l0.081,-0.107l0.083,-0.11l0.085,-0.113l0.086,-0.117l0.043,-0.059l0.044,-0.06l0.045,-0.061l0.044,-0.062l0.045,-0.062l0.046,-0.064l0.045,-0.064l0.046,-0.065l0.047,-0.066l0.047,-0.067l0.047,-0.067l0.048,-0.069l0.048,-0.069l0.048,-0.07l0.049,-0.071l0.049,-0.072l0.049,-0.073l0.05,-0.074l0.05,-0.074l0.051,-0.076l0.051,-0.076l0.051,-0.078l0.052,-0.078l0.052,-0.079l0.053,-0.08l0.053,-0.081l0.053,-0.082l0.054,-0.083l0.054,-0.084l0.054,-0.085l0.055,-0.085l0.055,-0.087l0.056,-0.088l0.056,-0.088l0.057,-0.09l0.056,-0.091l0.058,-0.091l0.057,-0.093l0.058,-0.094l0.058,-0.094l0.059,-0.096l0.059,-0.097l0.06,-0.097l0.06,-0.099l0.06,-0.1l0.061,-0.101l0.061,-0.101l0.062,-0.103l0.062,-0.104l0.062,-0.105l0.063,-0.106l0.063,-0.108l0.064,-0.108l0.064,-0.109l0.064,-0.111l0.065,-0.111l0.065,-0.113l0.066,-0.113l0.066,-0.115l0.066,-0.116l0.067,-0.117l0.067,-0.118l0.068,-0.12l0.068,-0.12l0.069,-0.122l0.068,-0.122l0.07,-0.124l0.07,-0.125l0.07,-0.126l0.07,-0.128l0.071,-0.128l0.072,-0.13l0.071,-0.131l0.073,-0.132l0.072,-0.133l0.074,-0.135l0.073,-0.136l0.074,-0.137l0.074,-0.138l0.075,-0.139l0.075,-0.141l0.076,-0.142l0.076,-0.143l0.077,-0.144l0.076,-0.145l0.078,-0.147l0.078,-0.148l0.078,-0.15l0.079,-0.15l0.079,-0.152l0.079,-0.153l0.08,-0.155l0.08,-0.156l0.081,-0.157l0.082,-0.158l0.081,-0.16l0.082,-0.161l0.083,-0.162l0.083,-0.164l0.083,-0.165l0.084,-0.166l0.085,-0.167l0.084,-0.169l0.086,-0.171l0.043,-0.085l0.042,-0.085l0.043,-0.085l0.041,-0.085l0.042,-0.085l0.042,-0.085l0.041,-0.086l0.041,-0.086l0.041,-0.086l0.041,-0.086l0.04,-0.086l0.041,-0.087l0.04,-0.087l0.04,-0.087l0.04,-0.087l0.039,-0.087l0.039,-0.088l0.04,-0.088l0.038,-0.088l0.039,-0.088l0.039,-0.088l0.038,-0.089l0.038,-0.089l0.038,-0.089l0.038,-0.089l0.038,-0.089l0.037,-0.09l0.038,-0.089l0.037,-0.09l0.037,-0.09l0.036,-0.09l0.037,-0.091l0.036,-0.09l0.037,-0.091l0.036,-0.091l0.036,-0.091l0.035,-0.092l0.036,-0.091l0.035,-0.092l0.036,-0.092l0.035,-0.092l0.035,-0.092l0.034,-0.092l0.035,-0.093l0.034,-0.093l0.035,-0.093l0.034,-0.093l0.034,-0.093l0.034,-0.093l0.034,-0.094l0.033,-0.094l0.034,-0.093l0.033,-0.094l0.033,-0.095l0.033,-0.094l0.033,-0.094l0.065,-0.19l0.065,-0.19l0.065,-0.191l0.063,-0.192l0.064,-0.192l0.063,-0.192l0.062,-0.194l0.062,-0.193l0.062,-0.195l0.061,-0.195l0.06,-0.195l0.061,-0.196l0.059,-0.197l0.06,-0.197l0.059,-0.198l0.059,-0.198l0.058,-0.199l0.058,-0.199l0.058,-0.2l0.058,-0.201l0.057,-0.2l0.057,-0.202l0.056,-0.201l0.057,-0.203l0.056,-0.202l0.056,-0.204l0.055,-0.203l0.056,-0.204l0.055,-0.205l0.055,-0.205l0.055,-0.205l0.055,-0.206l0.055,-0.206l0.054,-0.207l0.055,-0.207l0.054,-0.207l0.108,-0.416l0.108,-0.417l0.108,-0.419l0.107,-0.42l0.108,-0.421l0.108,-0.422l0.216,-0.849l0.109,-0.425l0.109,-0.427l0.11,-0.428l0.11,-0.428l0.112,-0.429l0.056,-0.215l0.056,-0.215l0.057,-0.216l0.056,-0.215l0.057,-0.216l0.058,-0.216l0.057,-0.215l0.058,-0.216l0.058,-0.217l0.059,-0.216l0.059,-0.216l0.059,-0.217l0.06,-0.216l0.06,-0.217l0.061,-0.217l0.06,-0.217l0.062,-0.217l0.062,-0.217l0.062,-0.217l0.062,-0.217l0.064,-0.217l0.063,-0.217l0.064,-0.217l0.065,-0.218l0.065,-0.217l0.066,-0.217l0.066,-0.217l0.067,-0.217l0.067,-0.218l0.068,-0.217l0.069,-0.217l0.069,-0.217l0.07,-0.217l0.07,-0.217l0.071,-0.217l0.072,-0.217l0.073,-0.217l0.073,-0.217l0.074,-0.216l0.074,-0.217l0.038,-0.108l0.037,-0.108l0.038,-0.108l0.038,-0.108l0.039,-0.109l0.038,-0.108l0.039,-0.108l0.039,-0.108l0.039,-0.108l0.039,-0.108l0.04,-0.108l0.039,-0.107l0.04,-0.108l0.04,-0.108l0.04,-0.108l0.041,-0.108l0.04,-0.107l0.041,-0.108l0.041,-0.107l0.042,-0.108l0.041,-0.108l0.042,-0.107l0.042,-0.107l0.042,-0.108l0.042,-0.107l0.043,-0.107l0.043,-0.108l0.043,-0.107l0.043,-0.107l0.044,-0.107l0.043,-0.107l0.044,-0.107l0.044,-0.107l0.045,-0.107l0.044,-0.107l0.045,-0.106l0.046,-0.107l0.045,-0.107l0.045,-0.106l0.046,-0.107l0.046,-0.106l0.047,-0.106l0.046,-0.107l0.047,-0.106l0.047,-0.106l0.048,-0.106l0.047,-0.106l0.048,-0.106l0.048,-0.106l0.049,-0.106l0.048,-0.106l0.049,-0.105l0.049,-0.106l0.05,-0.105l0.049,-0.106l0.05,-0.105l0.05,-0.106l0.051,-0.105l0.051,-0.105l0.051,-0.105l0.051,-0.105l0.052,-0.105l0.051,-0.105l0.053,-0.104l0.052,-0.105l0.053,-0.105l0.053,-0.104l0.053,-0.105l0.054,-0.104l0.053,-0.104l0.055,-0.104l0.054,-0.104l0.055,-0.104l0.055,-0.104l0.055,-0.104l0.056,-0.103l0.056,-0.104l0.056,-0.103l0.056,-0.104l0.057,-0.103l0.057,-0.103l0.058,-0.103l0.058,-0.103l0.058,-0.103l0.058,-0.103l0.059,-0.102l0.059,-0.103l0.059,-0.102l0.06,-0.103l0.06,-0.102l0.06,-0.102l0.061,-0.102l0.061,-0.102l0.061,-0.102l0.062,-0.101l0.062,-0.102l0.062,-0.101l0.062,-0.102l0.063,-0.101l0.064,-0.101l0.063,-0.101l0.064,-0.101l0.065,-0.1l0.064,-0.101l0.065,-0.101l0.066,-0.1l0.065,-0.1l0.066,-0.1l0.067,-0.1l0.066,-0.1l0.067,-0.1l0.068,-0.099l0.068,-0.1l0.068,-0.099l0.068,-0.099l0.069,-0.099l0.069,-0.099l0.07,-0.099l0.07,-0.099l0.07,-0.098l0.071,-0.099l0.071,-0.098l0.072,-0.098l0.071,-0.098l0.073,-0.098l0.072,-0.098l0.073,-0.097l0.073,-0.098l0.074,-0.097l0.074,-0.097l0.075,-0.097l0.075,-0.097l0.075,-0.097l0.076,-0.096l0.076,-0.096l0.076,-0.097l0.077,-0.096l0.077,-0.096l0.078,-0.095l0.078,-0.096l0.078,-0.095l0.079,-0.096l0.079,-0.095l0.08,-0.095l0.08,-0.095l0.08,-0.094l0.081,-0.095l0.081,-0.094l0.082,-0.094l0.082,-0.094l0.083,-0.094l0.083,-0.094l0.083,-0.093l0.084,-0.094l0.084,-0.093l0.085,-0.093l0.085,-0.093l0.085,-0.092l0.086,-0.093l0.086,-0.092l0.087,-0.092l0.087,-0.092l0.088,-0.092l0.088,-0.091l0.088,-0.092l0.089,-0.091l0.09,-0.091l0.09,-0.091l0.09,-0.091l0.09,-0.09l0.092,-0.091l0.091,-0.09l0.092,-0.09l0.093,-0.089l0.093,-0.09l0.093,-0.089l0.094,-0.09l0.094,-0.089l0.095,-0.088l0.095,-0.089l0.096,-0.088l0.096,-0.089l0.097,-0.088l0.097,-0.088l0.097,-0.087l0.098,-0.088l0.099,-0.087l0.099,-0.087l0.099,-0.087l0.1,-0.086l0.101,-0.087l0.1,-0.086l0.102,-0.086l0.102,-0.086l0.102,-0.085l0.103,-0.086l0.103,-0.085l0.104,-0.085l0.104,-0.085l0.105,-0.084l0.105,-0.085l0.106,-0.084l0.106,-0.084l0.107,-0.083l0.107,-0.084l0.108,-0.083l0.108,-0.083l0.109,-0.083l0.109,-0.083l0.11,-0.082l0.11,-0.082l0.111,-0.082l0.111,-0.082l0.112,-0.081l0.112,-0.082l0.113,-0.081l0.113,-0.081l0.114,-0.08l0.114,-0.08l0.115,-0.081l0.116,-0.079l0.116,-0.08l0.116,-0.08l0.117,-0.079l0.118,-0.079l0.118,-0.078l0.118,-0.079l0.119,-0.078l0.12,-0.078l0.12,-0.078l0.121,-0.078l0.121,-0.077l0.122,-0.077l0.122,-0.077l0.123,-0.076l0.123,-0.077l0.124,-0.076l0.125,-0.075l0.125,-0.076l0.126,-0.075l0.126,-0.075l0.127,-0.075l0.127,-0.075l0.128,-0.074l0.128,-0.074l0.129,-0.074l0.13,-0.074l0.13,-0.073l0.13,-0.073l0.132,-0.073l0.131,-0.072l0.133,-0.073l0.134,-0.073l0.134,-0.072l0.134,-0.071l0.133,-0.071l0.133,-0.07l0.133,-0.07l0.132,-0.068l0.131,-0.068l0.131,-0.068l0.131,-0.066l0.13,-0.066l0.13,-0.065l0.13,-0.065l0.129,-0.063l0.128,-0.064l0.129,-0.062l0.127,-0.062l0.128,-0.061l0.127,-0.06l0.126,-0.06l0.126,-0.059l0.126,-0.058l0.125,-0.058l0.125,-0.057l0.125,-0.056l0.124,-0.056l0.124,-0.055l0.123,-0.055l0.123,-0.054l0.122,-0.053l0.123,-0.052l0.121,-0.052l0.122,-0.051l0.121,-0.051l0.12,-0.05l0.121,-0.049l0.119,-0.049l0.12,-0.048l0.119,-0.048l0.119,-0.046l0.118,-0.047l0.118,-0.045l0.117,-0.045l0.117,-0.045l0.117,-0.044l0.117,-0.043l0.116,-0.043l0.116,-0.042l0.115,-0.041l0.115,-0.041l0.115,-0.04l0.114,-0.04l0.114,-0.039l0.113,-0.039l0.114,-0.038l0.112,-0.037l0.113,-0.037l0.112,-0.036l0.112,-0.036l0.111,-0.035l0.111,-0.035l0.111,-0.034l0.111,-0.034l0.11,-0.033l0.109,-0.032l0.11,-0.032l0.109,-0.031l0.109,-0.031l0.108,-0.03l0.108,-0.03l0.108,-0.029l0.107,-0.029l0.108,-0.028l0.106,-0.028l0.107,-0.027l0.106,-0.027l0.106,-0.026l0.105,-0.026l0.105,-0.025l0.105,-0.024l0.105,-0.024l0.104,-0.024l0.104,-0.023l0.104,-0.023l0.103,-0.022l0.103,-0.022l0.103,-0.021l0.102,-0.021l0.102,-0.02l0.102,-0.02l0.102,-0.019l0.101,-0.019l0.101,-0.018l0.1,-0.018l0.101,-0.018l0.1,-0.017l0.1,-0.016l0.099,-0.016l0.099,-0.016l0.099,-0.015l0.099,-0.015l0.098,-0.014l0.098,-0.014l0.098,-0.014l0.098,-0.013l0.097,-0.013l0.097,-0.012l0.096,-0.012l0.097,-0.011l0.096,-0.011l0.096,-0.01l0.095,-0.011l0.096,-0.009l0.095,-0.01l0.095,-0.009l0.094,-0.008l0.095,-0.008l0.094,-0.008l0.094,-0.007l0.093,-0.007l0.093,-0.007l0.093,-0.006l0.093,-0.006l0.093,-0.006l0.092,-0.005l0.092,-0.004l0.092,-0.005l0.092,-0.004l0.091,-0.003l0.091,-0.004l0.091,-0.003l0.09,-0.002l0.091,-0.003l0.09,-0.001l0.09,-0.002l0.09,-0.001l0.089,-0.001l0.089,-0.001l0.089,0l0.089,0l0.089,0.001l0.088,0l0.088,0.001l0.088,0.002l0.088,0.001l0.087,0.002l0.088,0.003l0.087,0.002l0.086,0.003l0.087,0.003l0.087,0.004l0.086,0.004l0.086,0.004l0.086,0.004l0.085,0.005l0.086,0.005l0.085,0.005l0.085,0.005l0.085,0.006l0.084,0.006l0.085,0.006l0.084,0.007l0.084,0.007l0.084,0.007l0.084,0.007l0.083,0.007l0.084,0.008l0.083,0.008l0.083,0.009l0.083,0.008l0.082,0.009l0.083,0.009l0.082,0.009l0.082,0.009l0.082,0.01l0.082,0.01l0.081,0.01l0.082,0.01l0.081,0.011l0.081,0.01l0.081,0.011l0.081,0.011l0.08,0.012l0.081,0.011l0.08,0.012l0.08,0.012l0.08,0.012l0.08,0.012l0.08,0.013l0.079,0.012l0.08,0.013l0.079,0.013l0.079,0.013l0.079,0.014l0.079,0.013l0.079,0.014l0.157,0.027l0.156,0.029l0.156,0.029l0.156,0.029l0.155,0.03l0.154,0.031l0.154,0.031l0.154,0.031l0.153,0.032l0.153,0.032l0.152,0.033l0.152,0.033l0.151,0.034l0.152,0.033l0.15,0.034l0.151,0.035l0.15,0.034l0.15,0.035l0.149,0.035l0.149,0.035l0.149,0.035l0.148,0.036l0.297,0.071l0.295,0.072l0.588,0.142l0.071,0.018l0.07,0.017l0.07,0.017l0.07,0.018l0.069,0.018l0.069,0.018l0.069,0.018l0.068,0.018l0.068,0.018l0.068,0.018l0.068,0.019l0.067,0.018l0.067,0.019l0.066,0.019l0.067,0.019l0.066,0.019l0.066,0.019l0.065,0.019l0.066,0.02l0.064,0.019l0.065,0.02l0.065,0.02l0.064,0.019l0.064,0.02l0.063,0.021l0.063,0.02l0.063,0.02l0.063,0.021l0.063,0.02l0.062,0.021l0.062,0.021l0.061,0.021l0.062,0.021l0.061,0.021l0.06,0.021l0.061,0.021l0.06,0.022l0.06,0.021l0.06,0.022l0.06,0.022l0.059,0.022l0.059,0.022l0.059,0.022l0.058,0.022l0.058,0.022l0.058,0.023l0.058,0.022l0.057,0.023l0.057,0.023l0.057,0.023l0.057,0.023l0.056,0.023l0.056,0.023l0.056,0.023l0.056,0.024l0.055,0.023l0.056,0.024l0.054,0.024l0.055,0.024l0.055,0.023l0.054,0.024l0.054,0.025l0.053,0.024l0.054,0.024l0.053,0.025l0.053,0.024l0.053,0.025l0.052,0.025l0.053,0.024l0.052,0.025l0.051,0.025l0.052,0.026l0.051,0.025l0.051,0.025l0.051,0.026l0.051,0.025l0.05,0.026l0.051,0.025l0.05,0.026l0.049,0.026l0.05,0.026l0.049,0.026l0.049,0.026l0.049,0.027l0.049,0.026l0.048,0.027l0.048,0.026l0.048,0.027l0.048,0.026l0.048,0.027l0.047,0.027l0.047,0.027l0.047,0.027l0.047,0.028l0.046,0.027l0.046,0.027l0.092,0.055l0.091,0.056l0.091,0.055l0.089,0.056l0.089,0.057l0.088,0.057l0.087,0.057l0.086,0.057l0.086,0.058l0.084,0.058l0.084,0.058l0.084,0.059l0.082,0.059l0.082,0.059l0.081,0.06l0.08,0.06l0.08,0.06l0.079,0.06l0.078,0.061l0.078,0.061l0.077,0.062l0.076,0.061l0.076,0.062l0.074,0.063l0.075,0.062l0.073,0.063l0.073,0.063l0.073,0.063l0.071,0.064l0.072,0.064l0.07,0.064l0.07,0.064l0.069,0.065l0.069,0.064l0.068,0.065l0.068,0.066l0.067,0.065l0.067,0.066l0.066,0.066l0.065,0.066l0.065,0.066l0.065,0.067l0.064,0.067l0.063,0.067l0.063,0.067l0.063,0.067l0.062,0.068l0.061,0.068l0.061,0.068l0.061,0.068l0.06,0.068l0.06,0.069l0.06,0.069l0.059,0.068l0.058,0.07l0.058,0.069l0.058,0.069l0.057,0.07l0.057,0.069l0.057,0.07l0.056,0.07l0.056,0.07l0.056,0.071l0.055,0.07l0.055,0.071l0.055,0.07l0.054,0.071l0.054,0.071l0.054,0.071l0.054,0.071l0.053,0.071l0.053,0.072l0.052,0.071l0.053,0.072l0.052,0.072l0.052,0.072l0.052,0.071l0.051,0.072l0.051,0.073l0.052,0.072l0.04,0.058l0.04,0.058l0.04,0.059l0.039,0.06l0.039,0.061l0.039,0.061l0.039,0.062l0.038,0.063l0.037,0.063l0.038,0.064l0.037,0.064l0.037,0.066l0.036,0.066l0.036,0.066l0.035,0.067l0.036,0.068l0.035,0.068l0.034,0.069l0.035,0.07l0.034,0.07l0.033,0.071l0.033,0.071l0.033,0.072l0.033,0.073l0.032,0.073l0.032,0.074l0.031,0.075l0.032,0.075l0.03,0.075l0.031,0.077l0.03,0.076l0.03,0.078l0.029,0.078l0.029,0.078l0.029,0.079l0.029,0.08l0.028,0.08l0.027,0.081l0.028,0.082l0.027,0.081l0.026,0.083l0.027,0.083l0.026,0.083l0.025,0.085l0.026,0.084l0.024,0.085l0.025,0.086l0.024,0.086l0.024,0.087l0.024,0.087l0.023,0.088l0.023,0.088l0.022,0.089l0.022,0.09l0.022,0.089l0.021,0.091l0.021,0.091l0.021,0.091l0.02,0.092l0.02,0.092l0.02,0.093l0.019,0.093l0.019,0.094l0.018,0.094l0.019,0.095l0.017,0.095l0.018,0.096l0.017,0.096l0.017,0.096l0.016,0.097l0.016,0.098l0.016,0.098l0.015,0.098l0.015,0.099l0.014,0.099l0.014,0.1l0.014,0.1l0.014,0.101l0.013,0.101l0.013,0.101l0.012,0.102l0.012,0.102l0.011,0.103l0.012,0.103l0.01,0.103l0.011,0.104l0.01,0.105l0.01,0.104l0.009,0.105l0.009,0.106l0.009,0.106l0.008,0.106l0.008,0.107l0.007,0.107l0.007,0.107l0.007,0.108l0.007,0.108l0.006,0.109l0.005,0.108l0.005,0.11l0.005,0.109l0.005,0.11l0.004,0.111l0.003,0.11l0.004,0.111l0.003,0.112l0.002,0.111l0.002,0.112l0.002,0.112l0.001,0.113l0.001,0.113l0.001,0.113l0,0.114l0,0.114l0,0.114l-0.001,0.115l-0.002,0.114l-0.001,0.116l-0.003,0.115l-0.002,0.116l-0.003,0.116l-0.003,0.116l-0.004,0.117l-0.004,0.117l-0.005,0.117l-0.005,0.117l-0.005,0.118l-0.005,0.118l-0.007,0.118l-0.006,0.119l-0.007,0.118l-0.007,0.119l-0.008,0.12l-0.008,0.119l-0.009,0.12l-0.008,0.12l-0.01,0.12l-0.009,0.12l-0.011,0.121l-0.01,0.121l-0.011,0.121l-0.011,0.121l-0.012,0.122l-0.012,0.122l-0.013,0.122l-0.013,0.122l-0.013,0.122l-0.014,0.123l-0.014,0.123l-0.015,0.123l-0.015,0.123l-0.015,0.123l-0.016,0.124l-0.016,0.124l-0.017,0.124l-0.017,0.124l-0.018,0.124l-0.018,0.124l-0.018,0.125l-0.019,0.125l-0.019,0.125l-0.02,0.125l-0.02,0.125l-0.02,0.125l-0.021,0.126l-0.021,0.125l-0.022,0.126l-0.022,0.126l-0.023,0.126l-0.023,0.126l-0.023,0.127l-0.024,0.126l-0.025,0.127l-0.024,0.126l-0.025,0.127l-0.026,0.127l-0.026,0.127l-0.027,0.127l-0.026,0.127l-0.028,0.128l-0.028,0.127l-0.028,0.127l-0.028,0.128l-0.029,0.127l-0.03,0.128l-0.03,0.128l-0.03,0.128l-0.031,0.128l-0.031,0.128l-0.032,0.128l-0.032,0.128l-0.033,0.128l-0.033,0.128l-0.033,0.128l-0.034,0.129l-0.035,0.128l-0.034,0.128l-0.036,0.129l-0.035,0.128l-0.037,0.129l-0.036,0.128l-0.037,0.129l-0.038,0.128l-0.038,0.129l-0.038,0.128l-0.039,0.129l-0.039,0.128l-0.04,0.129l-0.04,0.128l-0.041,0.129l-0.041,0.129l-0.042,0.128l-0.042,0.129l-0.042,0.128l-0.043,0.128l-0.043,0.129l-0.044,0.128l-0.045,0.129l-0.044,0.128l-0.046,0.128l-0.045,0.129l-0.047,0.128l-0.046,0.128l-0.047,0.128l-0.048,0.128l-0.048,0.128l-0.048,0.128l-0.049,0.128l-0.05,0.128l-0.05,0.127l-0.05,0.128l-0.051,0.128l-0.051,0.127l-0.052,0.128l-0.052,0.127l-0.053,0.127l-0.053,0.127l-0.054,0.127l-0.054,0.127l-0.055,0.127l-0.055,0.127l-0.055,0.126l-0.056,0.127l-0.057,0.126l-0.057,0.126l-0.058,0.126l-0.058,0.126l-0.058,0.126l-0.059,0.126l-0.059,0.125l-0.06,0.126l-0.061,0.125l-0.061,0.125l-0.061,0.125l-0.062,0.125l-0.062,0.124l-0.036,0.071l-0.036,0.071l-0.037,0.072l-0.037,0.071l-0.037,0.072l-0.038,0.071l-0.038,0.072l-0.038,0.072l-0.039,0.072l-0.039,0.072l-0.039,0.073l-0.04,0.072l-0.04,0.073l-0.041,0.072l-0.041,0.073l-0.041,0.073l-0.041,0.073l-0.042,0.073l-0.043,0.074l-0.042,0.073l-0.043,0.073l-0.043,0.074l-0.044,0.074l-0.044,0.074l-0.044,0.073l-0.045,0.074l-0.044,0.074l-0.046,0.075l-0.045,0.074l-0.046,0.074l-0.046,0.074l-0.046,0.075l-0.047,0.075l-0.047,0.074l-0.048,0.075l-0.047,0.075l-0.048,0.074l-0.048,0.075l-0.049,0.075l-0.049,0.075l-0.049,0.075l-0.049,0.076l-0.05,0.075l-0.05,0.075l-0.05,0.075l-0.051,0.076l-0.051,0.075l-0.051,0.075l-0.051,0.076l-0.052,0.075l-0.051,0.076l-0.053,0.076l-0.052,0.075l-0.053,0.076l-0.053,0.076l-0.053,0.075l-0.053,0.076l-0.054,0.076l-0.054,0.075l-0.054,0.076l-0.055,0.076l-0.054,0.076l-0.055,0.076l-0.055,0.075l-0.056,0.076l-0.056,0.076l-0.055,0.076l-0.057,0.076l-0.056,0.075l-0.056,0.076l-0.057,0.076l-0.057,0.076l-0.057,0.075l-0.058,0.076l-0.058,0.076l-0.057,0.076l-0.059,0.075l-0.058,0.076l-0.117,0.151l-0.118,0.151l-0.119,0.151l-0.119,0.151l-0.121,0.15l-0.121,0.151l-0.122,0.15l-0.122,0.15l-0.123,0.149l-0.124,0.149l-0.125,0.149l-0.125,0.149l-0.126,0.148l-0.126,0.148l-0.127,0.148l-0.127,0.147l-0.128,0.147l-0.129,0.146l-0.129,0.146l-0.13,0.145l-0.13,0.145l-0.13,0.145l-0.131,0.144l-0.131,0.143l-0.132,0.143l-0.132,0.142l-0.133,0.141l-0.133,0.141l-0.133,0.141l-0.133,0.139l-0.134,0.139l-0.134,0.138l-0.135,0.138l-0.134,0.137l-0.135,0.136l-0.135,0.135l-0.135,0.134l-0.136,0.134l-0.135,0.133l-0.136,0.132l-0.136,0.131l-0.136,0.13l-0.136,0.129l-0.068,0.065l-0.068,0.064l-0.068,0.064l-0.068,0.063l-0.068,0.064l-0.068,0.063l-0.069,0.063l-0.068,0.062l-0.068,0.063l-0.068,0.062l-0.068,0.062l-0.068,0.061l-0.068,0.062l-0.068,0.061l-0.068,0.06l-0.069,0.061l-0.068,0.06l-0.068,0.06l-0.068,0.06l-0.068,0.059l-0.068,0.06l-0.068,0.059l-0.067,0.058l-0.068,0.058l-0.068,0.059l-0.068,0.057l-0.068,0.058l-0.067,0.057l-0.068,0.057l-0.068,0.056l-0.067,0.057l-0.068,0.056l-0.067,0.055l-0.068,0.056l-0.067,0.055l-0.068,0.054l-0.067,0.055l-0.067,0.054l-0.067,0.054l-0.067,0.053l-0.067,0.053l-0.067,0.053l-0.067,0.052l-0.067,0.053l-0.067,0.051l-0.066,0.052l-0.067,0.051l-0.066,0.051l-0.067,0.05l-0.066,0.05l-0.066,0.05l-0.066,0.049l-0.066,0.049l-0.066,0.049l-0.066,0.048l-0.066,0.048l-0.066,0.048l-0.065,0.047l-0.066,0.047l-0.065,0.046l-0.065,0.047l-0.065,0.045l-0.065,0.046l-0.065,0.045l-0.065,0.044l-0.065,0.045l-0.064,0.043l-0.065,0.044l-0.064,0.043l-0.064,0.043l-0.064,0.042l-0.064,0.042l-0.064,0.041l-0.063,0.041l-0.064,0.041l-0.063,0.04l-0.063,0.04l-0.063,0.039l-0.063,0.039l-0.063,0.039l-0.063,0.038l-0.062,0.038l-0.062,0.037l-0.063,0.037l-0.062,0.037l-0.061,0.036l-0.062,0.035l-0.062,0.035l-0.061,0.035l-0.061,0.034l-0.061,0.034l-0.061,0.034l-0.3,0.163l-0.294,0.16l-0.287,0.156l-0.281,0.152l-0.275,0.148l-0.269,0.144l-0.264,0.141l-0.258,0.137l-0.252,0.134l-0.247,0.13l-0.241,0.127l-0.237,0.123l-0.231,0.12l-0.227,0.117l-0.221,0.114l-0.217,0.11l-0.213,0.108l-0.208,0.104l-0.203,0.102l-0.2,0.099l-0.098,0.048l-0.097,0.048l-0.097,0.047l-0.095,0.046l-0.094,0.045l-0.094,0.045l-0.092,0.045l-0.092,0.043l-0.09,0.043l-0.09,0.043l-0.089,0.041l-0.088,0.041l-0.087,0.041l-0.087,0.04l-0.085,0.039l-0.085,0.039l-0.084,0.038l-0.084,0.038l-0.082,0.037l-0.082,0.036l-0.081,0.036l-0.081,0.035l-0.079,0.035l-0.079,0.034l-0.079,0.034l-0.078,0.033l-0.077,0.033l-0.077,0.032l-0.076,0.032l-0.075,0.031l-0.075,0.031l-0.074,0.03l-0.074,0.03l-0.073,0.029l-0.073,0.029l-0.073,0.029l-0.071,0.028l-0.072,0.027l-0.071,0.028l-0.07,0.026l-0.071,0.027l-0.069,0.026l-0.07,0.025l-0.069,0.025l-0.068,0.025l-0.069,0.025l-0.068,0.024l-0.067,0.024l-0.068,0.023l-0.067,0.023l-0.067,0.023l-0.066,0.022l-0.067,0.022l-0.066,0.022l-0.066,0.022l-0.066,0.021l-0.065,0.021l-0.066,0.02l-0.065,0.021l-0.065,0.02l-0.065,0.02l-0.065,0.019l-0.065,0.02l-0.065,0.019l-0.065,0.019l-0.064,0.018l-0.065,0.019l-0.065,0.018l-0.065,0.018l-0.064,0.018l-0.065,0.018l-0.065,0.017l-0.129,0.035l-0.131,0.033l-0.13,0.034l-0.131,0.033l-0.132,0.032l-0.133,0.032l-0.134,0.032l-0.135,0.031l-0.136,0.031l-0.137,0.032l-0.139,0.031l-0.14,0.031l-0.142,0.031l-0.144,0.031l-0.146,0.032l-0.148,0.031l-0.302,0.064l-0.312,0.066l-0.323,0.069l-0.334,0.07l-0.348,0.074l-0.178,0.038l-0.182,0.04l-0.186,0.04l-0.19,0.041l-0.194,0.043l-0.197,0.043l-0.202,0.045l-0.206,0.047l-0.211,0.047l-0.215,0.049l-0.22,0.051l-0.224,0.052l-0.23,0.054l-0.234,0.056l-0.24,0.057l-0.245,0.059l-0.25,0.061l-0.256,0.063l-0.262,0.065l-0.267,0.067l-0.273,0.069l-0.279,0.071l-0.286,0.073l-0.291,0.076l-0.298,0.078l-0.305,0.081l-0.311,0.083l-0.318,0.085l-0.161,0.044l-0.163,0.044l-0.165,0.046l-0.167,0.045l-0.169,0.047l-0.17,0.047l-0.172,0.048l-0.174,0.048l-0.176,0.049l-0.178,0.05l-0.179,0.051l-0.181,0.051l-0.184,0.052l-0.185,0.053l-0.187,0.054l-0.189,0.054l-0.191,0.055l-0.193,0.056l-0.195,0.057l-0.198,0.057l-0.199,0.059l-0.201,0.059l-0.203,0.06l-0.205,0.061l-0.207,0.061l-0.21,0.063l-0.211,0.063l-0.214,0.064l-0.216,0.065l-0.218,0.066l-0.22,0.067l-0.222,0.067l-0.225,0.069l-0.227,0.069l-0.229,0.07l-0.225,0.07l-0.286,0.105l-0.289,0.108l-0.287,0.107l-0.283,0.106l-0.281,0.106l-0.278,0.105l-0.275,0.105l-0.272,0.105l-0.27,0.103l-0.267,0.104l-0.264,0.103l-0.261,0.102l-0.258,0.102l-0.256,0.101l-0.253,0.101l-0.251,0.1l-0.247,0.1l-0.246,0.099l-0.242,0.099l-0.24,0.098l-0.237,0.098l-0.235,0.098l-0.232,0.096l-0.23,0.097l-0.227,0.095l-0.224,0.096l-0.222,0.095l-0.22,0.094l-0.217,0.094l-0.214,0.093l-0.213,0.093l-0.209,0.092l-0.208,0.092l-0.205,0.091l-0.202,0.091l-0.2,0.09l-0.198,0.09l-0.196,0.089l-0.193,0.089l-0.191,0.089l-0.188,0.087l-0.187,0.088l-0.184,0.087l-0.182,0.086l-0.18,0.086l-0.177,0.085l-0.175,0.085l-0.173,0.084l-0.171,0.084l-0.169,0.084l-0.167,0.082l-0.165,0.083l-0.162,0.082l-0.161,0.081l-0.158,0.081l-0.156,0.08l-0.155,0.08l-0.152,0.08l-0.15,0.079l-0.149,0.078l-0.146,0.078l-0.145,0.078l-0.142,0.077l-0.141,0.076l-0.138,0.076l-0.137,0.076l-0.135,0.075l-0.133,0.074l-0.132,0.074l-0.129,0.074l-0.128,0.073l-0.126,0.072l-0.124,0.073l-0.122,0.071l-0.121,0.071l-0.119,0.071l-0.117,0.07l-0.115,0.07l-0.114,0.069l-0.112,0.069l-0.111,0.068l-0.109,0.068l-0.107,0.067l-0.106,0.067l-0.104,0.066l-0.102,0.066l-0.101,0.065l-0.1,0.065l-0.098,0.064l-0.096,0.064l-0.095,0.064l-0.094,0.062l-0.092,0.063l-0.091,0.062l-0.089,0.061l-0.088,0.061l-0.086,0.061l-0.085,0.06l-0.084,0.06l-0.082,0.059l-0.081,0.058l-0.08,0.058l-0.079,0.058l-0.077,0.057l-0.076,0.057l-0.075,0.056l-0.073,0.056l-0.072,0.055l-0.071,0.055l-0.07,0.055l-0.069,0.054l-0.068,0.053l-0.066,0.053l-0.066,0.052l-0.064,0.052l-0.063,0.052l-0.063,0.051l-0.061,0.051l-0.06,0.05l-0.059,0.05l-0.058,0.049l-0.057,0.049l-0.056,0.048l-0.056,0.048l-0.054,0.047l-0.053,0.047l-0.053,0.047l-0.052,0.046l-0.111,0.1l-0.109,0.098l-0.106,0.095l-0.103,0.094l-0.1,0.09l-0.097,0.089l-0.187,0.17l-0.175,0.161l-0.166,0.153l-0.155,0.144l-0.147,0.136l-0.266,0.249l-0.122,0.113l-0.114,0.105l-0.107,0.099l-0.1,0.092l-0.048,0.044l-0.021,0.019l0.025,0.084l0.034,0.11l0.032,0.107l0.016,0.053l0.015,0.052l0.015,0.052l0.015,0.051l0.014,0.051l0.013,0.051l0.013,0.051l0.012,0.05l0.012,0.05l0.011,0.05l0.005,0.025l0.005,0.025l0.005,0.025l0.004,0.025l0.004,0.025l0.005,0.025l0.003,0.025l0.004,0.025l0.003,0.025l0.003,0.025l0.003,0.026l0.002,0.025l0.003,0.025l0.002,0.025l0.001,0.026l0.002,0.025l0.001,0.025l0,0.026l0.001,0.025l0,0.026l-0.001,0.025l0,0.026l-0.002,0.026l-0.001,0.026l-0.002,0.025l-0.002,0.026l-0.003,0.026l-0.002,0.026l-0.004,0.026l-0.004,0.026l-0.004,0.027l-0.004,0.026l-0.005,0.026l-0.006,0.027l-0.006,0.026l-0.006,0.026l-0.006,0.027l-0.008,0.027l-0.007,0.026l-0.008,0.027l-0.009,0.027l-0.008,0.026l-0.01,0.027l-0.01,0.027l-0.01,0.027l-0.011,0.027l-0.011,0.028l-0.011,0.027l-0.012,0.027l-0.013,0.028l-0.013,0.027l-0.013,0.028l-0.014,0.028l-0.015,0.027l-0.015,0.028l-0.015,0.028l-0.016,0.028l-0.016,0.029l-0.017,0.028l-0.018,0.029l-0.017,0.028l-0.019,0.029l-0.019,0.029l-0.019,0.029l-0.02,0.03l-0.02,0.029l-0.021,0.03l-0.021,0.03l-0.022,0.03l-0.023,0.03l-0.023,0.03l-0.024,0.031l-0.024,0.031l-0.024,0.031l-0.026,0.031l-0.025,0.032l-0.027,0.032l-0.027,0.032l-0.027,0.032l-0.028,0.032l-0.029,0.033l-0.029,0.033l-0.03,0.034l-0.03,0.033l-0.031,0.034l-0.032,0.034l-0.032,0.035l-0.033,0.035l-0.034,0.035l-0.034,0.036l-0.035,0.035l-0.03,0.031l-0.01,0.011l-0.021,0.024l-0.027,0.029l-0.032,0.036l-0.082,0.089l-0.105,0.113l-0.128,0.136l-0.15,0.16l-0.173,0.183l-0.194,0.205l-0.216,0.227l-0.238,0.249l-0.258,0.269l-0.137,0.142l-0.141,0.147l-0.147,0.152l-0.152,0.157l-0.157,0.162l-0.161,0.166l-0.167,0.171l-0.171,0.176l-0.176,0.18l-0.181,0.185l-0.185,0.189l-0.19,0.194l-0.195,0.197l-0.199,0.203l-0.204,0.206l-0.208,0.21l-0.212,0.214l-0.217,0.219l-0.221,0.222l-0.225,0.226l-0.23,0.23l-0.234,0.233l-0.237,0.237l-0.242,0.241l-0.246,0.244l-0.25,0.248l-0.254,0.251l-0.258,0.254l-0.262,0.258l-0.265,0.26l-0.269,0.264l-0.273,0.267l-0.277,0.27l-0.28,0.273l-0.284,0.276l-0.287,0.278l-0.291,0.281l-0.294,0.284l-0.298,0.287l-0.301,0.289l-0.304,0.291l-0.311,0.298l-0.086,0.074l-0.08,0.071l-0.08,0.07l-0.08,0.07l-0.078,0.07l-0.078,0.07l-0.078,0.069l-0.077,0.069l-0.076,0.069l-0.076,0.068l-0.075,0.069l-0.075,0.068l-0.074,0.068l-0.074,0.067l-0.072,0.068l-0.073,0.067l-0.072,0.067l-0.071,0.066l-0.07,0.067l-0.071,0.066l-0.069,0.066l-0.069,0.066l-0.068,0.065l-0.068,0.066l-0.068,0.065l-0.066,0.064l-0.067,0.065l-0.065,0.064l-0.065,0.064l-0.065,0.064l-0.064,0.063l-0.063,0.064l-0.063,0.063l-0.063,0.063l-0.062,0.062l-0.061,0.062l-0.061,0.063l-0.06,0.061l-0.06,0.062l-0.06,0.061l-0.058,0.061l-0.059,0.061l-0.057,0.061l-0.058,0.06l-0.056,0.06l-0.057,0.06l-0.055,0.06l-0.056,0.059l-0.054,0.059l-0.055,0.059l-0.054,0.058l-0.053,0.059l-0.053,0.058l-0.052,0.058l-0.052,0.057l-0.051,0.058l-0.051,0.057l-0.05,0.056l-0.05,0.057l-0.05,0.056l-0.049,0.056l-0.048,0.056l-0.048,0.056l-0.048,0.055l-0.047,0.055l-0.046,0.055l-0.047,0.054l-0.045,0.054l-0.046,0.054l-0.044,0.054l-0.045,0.054l-0.044,0.053l-0.086,0.106l-0.085,0.104l-0.083,0.104l-0.081,0.102l-0.08,0.102l-0.078,0.1l-0.076,0.099l-0.075,0.099l-0.073,0.097l-0.071,0.096l-0.07,0.095l-0.068,0.094l-0.067,0.093l-0.065,0.092l-0.064,0.091l-0.062,0.089l-0.06,0.089l-0.059,0.088l-0.058,0.086l-0.056,0.085l-0.055,0.085l-0.053,0.083l-0.052,0.082l-0.051,0.081l-0.049,0.079l-0.048,0.079l-0.047,0.078l-0.045,0.076l-0.045,0.076l-0.042,0.074l-0.042,0.073l-0.04,0.072l-0.04,0.071l-0.038,0.069l-0.036,0.069l-0.036,0.067l-0.035,0.067l-0.033,0.065l-0.032,0.064l-0.032,0.062l-0.03,0.062l-0.029,0.061l-0.028,0.059l-0.027,0.058l-0.026,0.057l-0.026,0.056l-0.024,0.055l-0.023,0.053l-0.023,0.052l-0.021,0.051l-0.021,0.05l-0.019,0.049l-0.019,0.048l-0.018,0.046l-0.018,0.045l-0.016,0.044l-0.016,0.043l-0.015,0.042l-0.014,0.04l-0.013,0.039l-0.013,0.038l-0.012,0.037l-0.012,0.035l-0.011,0.035l-0.01,0.033l-0.009,0.031l-0.009,0.031l-0.009,0.029l-0.007,0.029l-0.008,0.027l-0.006,0.025l-0.007,0.024l-0.011,0.046l-0.009,0.04l-0.007,0.035l-0.007,0.03l-0.004,0.025l-0.004,0.02l-0.002,0.015l-0.001,0.009l-0.001,0.008l-0.027,0.084l-0.056,0.069l-0.076,0.043l-0.087,0.014l-10.087,-0.315l-0.085,-0.018l-0.073,-0.048l-0.051,-0.07l-0.023,-0.084l-0.006,-0.083l-0.008,-0.101l-0.011,-0.136l-0.013,-0.171l-0.014,-0.202l-0.017,-0.232l-0.017,-0.258l-0.009,-0.139l-0.01,-0.145l-0.009,-0.151l-0.01,-0.156l-0.01,-0.161l-0.01,-0.166l-0.009,-0.17l-0.01,-0.175l-0.01,-0.179l-0.009,-0.182l-0.01,-0.186l-0.009,-0.189l-0.009,-0.192l-0.008,-0.195l-0.009,-0.197l-0.008,-0.199l-0.007,-0.201l-0.007,-0.202l-0.007,-0.204l-0.006,-0.204l-0.005,-0.205l-0.005,-0.206l-0.004,-0.206l-0.002,-0.102l-0.001,-0.103l-0.002,-0.103l-0.001,-0.102l-0.001,-0.103l-0.001,-0.102l-0.001,-0.101l0,-0.102l0,-0.101l0,-0.101l0,-0.101l0.001,-0.1l0,-0.099l0.001,-0.1l0.001,-0.098l0.002,-0.098l0.002,-0.098l0.002,-0.097l0.002,-0.096l0.002,-0.095l0.003,-0.095l0.003,-0.094l0.004,-0.094l0.003,-0.092l0.004,-0.092l0.004,-0.09l0.005,-0.09l0.005,-0.089l0.005,-0.088l0.006,-0.086l0.006,-0.086l0.006,-0.085l0.007,-0.083l0.007,-0.083l0.007,-0.081l0.008,-0.08l0.008,-0.079l0.008,-0.078l0.009,-0.076l0.009,-0.075l0.01,-0.073l0.01,-0.072l0.01,-0.071l0.011,-0.07l0.012,-0.067l0.011,-0.067l0.013,-0.065l0.006,-0.032l0.006,-0.031l0.007,-0.031l0.007,-0.031l0.007,-0.031l0.006,-0.029l0.036,-0.081l0.062,-0.062l0.081,-0.036l0.059,-0.014l0.058,-0.014l0.058,-0.015l0.059,-0.015l0.058,-0.017l0.059,-0.016l0.06,-0.018l0.059,-0.018l0.06,-0.018l0.06,-0.019l0.06,-0.02l0.06,-0.02l0.061,-0.021l0.06,-0.021l0.061,-0.022l0.061,-0.022l0.061,-0.023l0.061,-0.023l0.061,-0.023l0.061,-0.024l0.062,-0.025l0.061,-0.025l0.062,-0.025l0.061,-0.026l0.061,-0.026l0.062,-0.027l0.061,-0.027l0.062,-0.027l0.061,-0.027l0.061,-0.028l0.062,-0.029l0.061,-0.028l0.061,-0.029l0.061,-0.029l0.061,-0.029l0.061,-0.03l0.06,-0.03l0.061,-0.03l0.06,-0.03l0.06,-0.031l0.06,-0.03l0.06,-0.031l0.06,-0.031l0.059,-0.031l0.059,-0.032l0.059,-0.031l0.059,-0.032l0.058,-0.031l0.058,-0.032l0.058,-0.032l0.058,-0.032l0.057,-0.032l0.057,-0.032l0.056,-0.032l0.057,-0.032l0.055,-0.032l0.111,-0.064l0.109,-0.064l0.108,-0.064l0.106,-0.063l0.104,-0.063l0.102,-0.063l0.1,-0.062l0.097,-0.061l0.096,-0.06l0.094,-0.06l0.091,-0.058l0.088,-0.058l0.086,-0.056l0.083,-0.055l0.081,-0.053l0.078,-0.052l0.074,-0.051l0.072,-0.048l0.069,-0.047l0.065,-0.045l0.063,-0.043l0.058,-0.041l0.056,-0.039l0.051,-0.036l0.093,-0.066l0.077,-0.056l0.061,-0.044l0.044,-0.032l0.037,-0.028l0.076,-0.037l0.085,-0.009l0.082,0.021l0.07,0.049Zm70.26,-84.874l-0.087,0.001l-0.088,0.001l-0.088,0.001l-0.088,0.001l-0.088,0.002l-0.089,0.003l-0.089,0.002l-0.089,0.003l-0.089,0.003l-0.089,0.004l-0.09,0.004l-0.09,0.004l-0.09,0.005l-0.091,0.005l-0.091,0.005l-0.09,0.006l-0.092,0.006l-0.091,0.006l-0.092,0.007l-0.092,0.007l-0.092,0.008l-0.092,0.008l-0.093,0.008l-0.093,0.009l-0.093,0.009l-0.094,0.01l-0.094,0.01l-0.094,0.01l-0.094,0.011l-0.094,0.011l-0.095,0.012l-0.095,0.012l-0.096,0.012l-0.095,0.013l-0.096,0.013l-0.096,0.014l-0.097,0.014l-0.097,0.014l-0.097,0.015l-0.097,0.016l-0.098,0.015l-0.098,0.017l-0.098,0.016l-0.098,0.018l-0.099,0.017l-0.099,0.018l-0.1,0.019l-0.099,0.019l-0.1,0.019l-0.1,0.02l-0.101,0.02l-0.101,0.021l-0.101,0.021l-0.102,0.022l-0.101,0.023l-0.103,0.022l-0.102,0.023l-0.103,0.024l-0.103,0.024l-0.103,0.025l-0.104,0.025l-0.104,0.026l-0.104,0.026l-0.105,0.027l-0.105,0.027l-0.105,0.028l-0.106,0.028l-0.106,0.029l-0.107,0.029l-0.106,0.03l-0.107,0.03l-0.108,0.031l-0.107,0.032l-0.108,0.032l-0.109,0.032l-0.109,0.033l-0.109,0.034l-0.109,0.034l-0.11,0.034l-0.11,0.036l-0.11,0.035l-0.111,0.037l-0.112,0.037l-0.111,0.037l-0.112,0.038l-0.112,0.039l-0.113,0.039l-0.113,0.04l-0.113,0.04l-0.114,0.041l-0.114,0.041l-0.115,0.042l-0.115,0.043l-0.115,0.043l-0.116,0.044l-0.116,0.045l-0.116,0.045l-0.117,0.045l-0.117,0.047l-0.118,0.046l-0.118,0.048l-0.118,0.048l-0.119,0.049l-0.119,0.049l-0.119,0.05l-0.12,0.051l-0.12,0.051l-0.121,0.052l-0.121,0.053l-0.122,0.053l-0.122,0.054l-0.122,0.054l-0.123,0.055l-0.123,0.056l-0.123,0.056l-0.124,0.057l-0.125,0.058l-0.125,0.059l-0.125,0.059l-0.125,0.059l-0.126,0.061l-0.127,0.061l-0.127,0.062l-0.127,0.062l-0.128,0.063l-0.128,0.064l-0.129,0.065l-0.129,0.065l-0.129,0.066l-0.13,0.066l-0.13,0.068l-0.131,0.068l-0.131,0.069l-0.132,0.069l-0.132,0.07l-0.133,0.071l-0.133,0.072l-0.133,0.072l-0.131,0.072l-0.13,0.071l-0.13,0.072l-0.129,0.073l-0.129,0.072l-0.128,0.073l-0.128,0.073l-0.127,0.073l-0.126,0.074l-0.126,0.073l-0.125,0.074l-0.125,0.075l-0.124,0.074l-0.124,0.075l-0.123,0.075l-0.123,0.075l-0.122,0.076l-0.121,0.075l-0.121,0.076l-0.121,0.076l-0.119,0.077l-0.12,0.076l-0.119,0.077l-0.118,0.077l-0.118,0.078l-0.117,0.077l-0.116,0.078l-0.117,0.078l-0.115,0.078l-0.115,0.079l-0.115,0.079l-0.114,0.079l-0.113,0.079l-0.113,0.079l-0.113,0.08l-0.112,0.08l-0.111,0.08l-0.111,0.08l-0.111,0.08l-0.109,0.081l-0.11,0.081l-0.109,0.081l-0.108,0.082l-0.108,0.081l-0.107,0.082l-0.107,0.082l-0.107,0.082l-0.106,0.083l-0.105,0.082l-0.105,0.083l-0.104,0.083l-0.104,0.084l-0.104,0.083l-0.103,0.084l-0.102,0.084l-0.102,0.084l-0.102,0.084l-0.101,0.085l-0.1,0.084l-0.1,0.085l-0.1,0.086l-0.099,0.085l-0.099,0.085l-0.098,0.086l-0.097,0.086l-0.098,0.086l-0.096,0.087l-0.097,0.086l-0.096,0.087l-0.095,0.087l-0.095,0.087l-0.094,0.087l-0.094,0.087l-0.094,0.088l-0.093,0.088l-0.093,0.088l-0.092,0.088l-0.092,0.089l-0.091,0.088l-0.091,0.089l-0.09,0.089l-0.09,0.089l-0.09,0.089l-0.089,0.09l-0.088,0.09l-0.089,0.09l-0.087,0.09l-0.088,0.09l-0.087,0.09l-0.086,0.091l-0.086,0.091l-0.086,0.09l-0.085,0.092l-0.085,0.091l-0.084,0.091l-0.084,0.092l-0.083,0.092l-0.084,0.092l-0.082,0.092l-0.082,0.092l-0.082,0.092l-0.082,0.093l-0.081,0.093l-0.08,0.093l-0.081,0.093l-0.079,0.093l-0.08,0.094l-0.079,0.093l-0.078,0.094l-0.079,0.094l-0.077,0.094l-0.078,0.094l-0.077,0.094l-0.076,0.095l-0.077,0.095l-0.076,0.095l-0.075,0.095l-0.075,0.095l-0.075,0.095l-0.074,0.095l-0.074,0.096l-0.074,0.096l-0.073,0.096l-0.072,0.096l-0.073,0.096l-0.072,0.096l-0.072,0.097l-0.071,0.096l-0.071,0.097l-0.07,0.097l-0.071,0.097l-0.069,0.097l-0.07,0.097l-0.069,0.098l-0.069,0.097l-0.068,0.098l-0.068,0.098l-0.068,0.098l-0.067,0.098l-0.067,0.098l-0.067,0.099l-0.066,0.098l-0.066,0.099l-0.065,0.099l-0.066,0.099l-0.065,0.099l-0.064,0.099l-0.064,0.099l-0.064,0.099l-0.064,0.1l-0.063,0.1l-0.063,0.099l-0.062,0.1l-0.063,0.1l-0.061,0.1l-0.062,0.101l-0.061,0.1l-0.061,0.101l-0.061,0.1l-0.06,0.101l-0.06,0.101l-0.06,0.101l-0.059,0.101l-0.059,0.101l-0.058,0.101l-0.059,0.101l-0.058,0.102l-0.058,0.102l-0.057,0.101l-0.057,0.102l-0.057,0.102l-0.057,0.102l-0.056,0.102l-0.056,0.102l-0.055,0.103l-0.056,0.102l-0.055,0.103l-0.054,0.102l-0.055,0.103l-0.054,0.103l-0.054,0.103l-0.053,0.103l-0.054,0.103l-0.053,0.103l-0.052,0.104l-0.053,0.103l-0.052,0.103l-0.052,0.104l-0.052,0.104l-0.051,0.103l-0.051,0.104l-0.051,0.104l-0.05,0.104l-0.051,0.104l-0.05,0.104l-0.049,0.105l-0.05,0.104l-0.049,0.105l-0.049,0.104l-0.049,0.105l-0.048,0.104l-0.048,0.105l-0.048,0.105l-0.048,0.105l-0.047,0.105l-0.047,0.105l-0.047,0.105l-0.047,0.105l-0.046,0.105l-0.046,0.106l-0.046,0.105l-0.046,0.106l-0.045,0.105l-0.046,0.106l-0.045,0.106l-0.044,0.105l-0.045,0.106l-0.044,0.106l-0.044,0.106l-0.044,0.106l-0.044,0.106l-0.043,0.106l-0.043,0.106l-0.043,0.107l-0.043,0.106l-0.042,0.106l-0.042,0.107l-0.042,0.106l-0.042,0.107l-0.042,0.106l-0.041,0.107l-0.041,0.106l-0.041,0.107l-0.041,0.107l-0.041,0.107l-0.04,0.107l-0.04,0.107l-0.04,0.106l-0.04,0.107l-0.039,0.108l-0.04,0.107l-0.039,0.107l-0.039,0.107l-0.039,0.107l-0.038,0.107l-0.039,0.108l-0.038,0.107l-0.038,0.107l-0.038,0.108l-0.037,0.107l-0.038,0.108l-0.037,0.107l-0.074,0.215l-0.074,0.216l-0.072,0.215l-0.072,0.215l-0.072,0.216l-0.07,0.216l-0.07,0.215l-0.07,0.216l-0.069,0.216l-0.068,0.216l-0.067,0.216l-0.068,0.216l-0.066,0.216l-0.066,0.216l-0.065,0.217l-0.065,0.216l-0.065,0.216l-0.063,0.216l-0.064,0.217l-0.063,0.216l-0.062,0.216l-0.062,0.216l-0.061,0.216l-0.062,0.216l-0.06,0.216l-0.06,0.216l-0.06,0.216l-0.06,0.216l-0.059,0.216l-0.059,0.216l-0.058,0.216l-0.058,0.215l-0.058,0.216l-0.058,0.215l-0.057,0.215l-0.057,0.215l-0.056,0.215l-0.057,0.215l-0.056,0.215l-0.056,0.214l-0.111,0.429l-0.11,0.428l-0.11,0.427l-0.109,0.427l-0.109,0.425l-0.216,0.848l-0.108,0.423l-0.108,0.422l-0.107,0.42l-0.108,0.419l-0.108,0.418l-0.109,0.416l-0.054,0.208l-0.055,0.208l-0.054,0.207l-0.055,0.206l-0.055,0.207l-0.055,0.206l-0.055,0.205l-0.056,0.205l-0.055,0.205l-0.056,0.204l-0.056,0.204l-0.057,0.204l-0.056,0.203l-0.057,0.202l-0.057,0.203l-0.058,0.201l-0.058,0.202l-0.058,0.2l-0.058,0.201l-0.059,0.2l-0.059,0.199l-0.059,0.199l-0.06,0.198l-0.06,0.198l-0.061,0.197l-0.061,0.197l-0.062,0.196l-0.062,0.196l-0.062,0.195l-0.063,0.195l-0.063,0.194l-0.064,0.194l-0.064,0.192l-0.065,0.193l-0.066,0.192l-0.065,0.191l-0.034,0.095l-0.033,0.095l-0.033,0.095l-0.034,0.095l-0.034,0.095l-0.034,0.095l-0.034,0.094l-0.034,0.094l-0.034,0.094l-0.035,0.094l-0.035,0.094l-0.034,0.094l-0.035,0.093l-0.035,0.094l-0.036,0.093l-0.035,0.093l-0.036,0.093l-0.036,0.092l-0.036,0.093l-0.036,0.092l-0.036,0.092l-0.036,0.092l-0.037,0.092l-0.037,0.092l-0.037,0.091l-0.037,0.091l-0.037,0.092l-0.038,0.09l-0.038,0.091l-0.038,0.091l-0.038,0.09l-0.038,0.09l-0.039,0.091l-0.038,0.089l-0.039,0.09l-0.039,0.09l-0.039,0.089l-0.04,0.089l-0.039,0.089l-0.04,0.089l-0.04,0.088l-0.041,0.089l-0.04,0.088l-0.041,0.088l-0.041,0.088l-0.041,0.087l-0.041,0.088l-0.042,0.087l-0.041,0.087l-0.042,0.087l-0.042,0.087l-0.043,0.086l-0.042,0.086l-0.043,0.087l-0.043,0.085l-0.043,0.085l-0.085,0.171l-0.085,0.169l-0.085,0.168l-0.084,0.167l-0.084,0.165l-0.083,0.164l-0.083,0.163l-0.082,0.162l-0.082,0.16l-0.082,0.159l-0.081,0.157l-0.081,0.157l-0.08,0.155l-0.08,0.153l-0.079,0.153l-0.079,0.151l-0.078,0.15l-0.078,0.148l-0.078,0.148l-0.077,0.146l-0.077,0.144l-0.076,0.144l-0.076,0.142l-0.076,0.142l-0.075,0.14l-0.075,0.138l-0.074,0.138l-0.074,0.136l-0.073,0.135l-0.073,0.134l-0.073,0.133l-0.072,0.131l-0.071,0.13l-0.072,0.13l-0.071,0.127l-0.07,0.127l-0.07,0.126l-0.07,0.124l-0.069,0.124l-0.069,0.122l-0.068,0.121l-0.068,0.12l-0.068,0.119l-0.067,0.117l-0.067,0.117l-0.066,0.115l-0.066,0.115l-0.066,0.113l-0.065,0.112l-0.065,0.111l-0.064,0.11l-0.064,0.109l-0.064,0.108l-0.063,0.106l-0.063,0.106l-0.062,0.105l-0.062,0.103l-0.062,0.103l-0.061,0.101l-0.061,0.101l-0.06,0.099l-0.06,0.099l-0.06,0.097l-0.059,0.096l-0.059,0.096l-0.058,0.094l-0.058,0.093l-0.058,0.093l-0.057,0.091l-0.057,0.091l-0.056,0.089l-0.056,0.088l-0.056,0.088l-0.056,0.086l-0.054,0.086l-0.055,0.085l-0.054,0.083l-0.054,0.083l-0.054,0.082l-0.053,0.081l-0.052,0.08l-0.053,0.079l-0.051,0.078l-0.052,0.077l-0.051,0.076l-0.051,0.076l-0.05,0.074l-0.051,0.074l-0.049,0.073l-0.05,0.072l-0.048,0.071l-0.049,0.07l-0.048,0.069l-0.048,0.069l-0.048,0.067l-0.047,0.067l-0.046,0.066l-0.047,0.065l-0.046,0.065l-0.046,0.063l-0.045,0.063l-0.045,0.062l-0.044,0.061l-0.045,0.06l-0.087,0.118l-0.086,0.115l-0.084,0.112l-0.084,0.109l-0.081,0.106l-0.081,0.103l-0.079,0.1l-0.077,0.097l-0.076,0.095l-0.075,0.091l-0.073,0.089l-0.073,0.086l-0.07,0.084l-0.07,0.081l-0.068,0.078l-0.066,0.076l-0.066,0.074l-0.064,0.071l-0.063,0.068l-0.061,0.066l-0.06,0.064l-0.059,0.062l-0.058,0.06l-0.056,0.057l-0.056,0.055l-0.053,0.053l-0.053,0.051l-0.051,0.049l-0.05,0.047l-0.049,0.046l-0.048,0.043l-0.046,0.041l-0.046,0.04l-0.044,0.038l-0.043,0.036l-0.041,0.035l-0.041,0.033l-0.039,0.031l-0.038,0.03l-0.037,0.028l-0.036,0.027l-0.035,0.026l-0.033,0.024l-0.033,0.023l-0.031,0.021l-0.03,0.021l-0.029,0.019l-0.028,0.018l-0.026,0.017l-0.026,0.015l-0.024,0.015l-0.024,0.014l-0.022,0.012l-0.021,0.012l-0.02,0.011l-0.019,0.01l-0.032,0.017l-0.024,0.012l-0.038,0.037l-0.095,0.035l-0.101,-0.007l-0.054,-0.016l-0.052,-0.015l-0.051,-0.014l-0.051,-0.015l-0.049,-0.013l-0.048,-0.013l-0.048,-0.013l-0.046,-0.012l-0.046,-0.012l-0.045,-0.011l-0.043,-0.01l-0.043,-0.011l-0.042,-0.01l-0.041,-0.009l-0.041,-0.009l-0.039,-0.008l-0.038,-0.009l-0.038,-0.007l-0.036,-0.008l-0.036,-0.007l-0.035,-0.006l-0.034,-0.006l-0.033,-0.006l-0.032,-0.005l-0.032,-0.005l-0.03,-0.005l-0.03,-0.004l-0.029,-0.004l-0.027,-0.004l-0.027,-0.003l-0.026,-0.003l-0.026,-0.003l-0.024,-0.002l-0.023,-0.002l-0.023,-0.002l-0.022,-0.001l-0.02,-0.002l-0.02,-0.001l-0.019,0l-0.018,-0.001l-0.017,0l-0.017,0l-0.015,0l-0.014,0.001l-0.013,0l-0.013,0.001l-0.011,0.001l-0.01,0.001l-0.009,0.001l-0.008,0.001l-0.007,0.001l-0.006,0.001l-0.002,0.001l-0.018,0.015l-0.083,0.028l-0.014,0.002l-0.012,0.002l-0.012,0.002l-0.012,0.002l-0.012,0.003l-0.012,0.003l-0.013,0.003l-0.013,0.004l-0.012,0.003l-0.013,0.005l-0.013,0.004l-0.014,0.005l-0.013,0.005l-0.014,0.005l-0.013,0.006l-0.014,0.006l-0.014,0.006l-0.014,0.007l-0.015,0.007l-0.014,0.007l-0.015,0.008l-0.015,0.008l-0.015,0.008l-0.015,0.009l-0.015,0.009l-0.016,0.01l-0.015,0.01l-0.016,0.01l-0.016,0.011l-0.016,0.011l-0.016,0.011l-0.017,0.012l-0.016,0.012l-0.017,0.013l-0.017,0.013l-0.016,0.013l-0.017,0.014l-0.018,0.014l-0.017,0.015l-0.017,0.015l-0.018,0.016l-0.018,0.015l-0.017,0.017l-0.018,0.016l-0.019,0.018l-0.018,0.017l-0.018,0.018l-0.019,0.019l-0.018,0.018l-0.019,0.02l-0.019,0.019l-0.019,0.02l-0.019,0.021l-0.019,0.021l-0.019,0.021l-0.02,0.022l-0.019,0.023l-0.02,0.022l-0.02,0.024l-0.019,0.023l-0.02,0.024l-0.021,0.025l-0.02,0.025l-0.025,0.031l-0.611,0.678l5.172,5.221l0.052,0.079l0.017,0.095l-0.021,0.093l-0.055,0.077l-1.095,1.016l-0.077,0.048l-0.089,0.016l-0.089,-0.018l-0.075,-0.049l-5.283,-5.116l-1.949,1.961l5.443,5.397l0.052,0.075l0.019,0.089l-0.015,0.09l-0.047,0.078l-0.851,0.934l-0.078,0.056l-0.093,0.022l-0.094,-0.016l-0.08,-0.052l-5.558,-5.402l-1.991,2.104l0.02,0.02l0.23,0.221l0.556,0.535l0.661,0.636l0.359,0.347l0.374,0.36l0.385,0.372l0.39,0.378l0.197,0.19l0.197,0.191l0.196,0.191l0.196,0.191l0.194,0.189l0.192,0.188l0.191,0.186l0.187,0.184l0.184,0.181l0.18,0.178l0.176,0.174l0.172,0.17l0.049,0.071l0.021,0.084l-0.01,0.086l-0.04,0.077l-0.995,1.272l-0.078,0.065l-0.098,0.027l-0.1,-0.016l-0.085,-0.056l-5.312,-5.425l-1.898,1.957l5.064,5.422l0.046,0.072l0.018,0.084l-0.012,0.085l-0.041,0.075l-0.923,1.132l-0.077,0.063l-0.096,0.025l-0.098,-0.015l-0.084,-0.054l-5.316,-5.284l-0.036,0.034l-0.141,0.139l-0.167,0.164l-0.186,0.183l-0.199,0.196l-0.102,0.101l-0.102,0.102l-0.102,0.102l-0.102,0.101l-0.099,0.1l-0.096,0.097l-0.093,0.094l-0.089,0.09l-0.083,0.086l-0.078,0.079l-0.07,0.074l-0.032,0.034l-0.03,0.032l-0.019,0.02l0.003,0.002l0.052,0.048l0.057,0.054l0.063,0.059l0.067,0.064l0.073,0.069l0.078,0.074l0.168,0.16l0.184,0.178l0.199,0.192l0.212,0.205l0.222,0.215l0.231,0.225l0.238,0.232l0.243,0.237l0.246,0.24l0.247,0.242l0.492,0.482l0.475,0.466l0.442,0.435l0.396,0.389l0.334,0.329l0.257,0.253l0.224,0.221l0.051,0.074l0.02,0.089l-0.014,0.09l-0.047,0.078l-1.242,1.383l-0.078,0.058l-0.094,0.022l-0.096,-0.018l-0.08,-0.053l-5.254,-5.288l-0.058,0.041l-0.094,0.067l-0.053,0.038l-0.057,0.039l-0.06,0.042l-0.063,0.044l-0.067,0.046l-0.07,0.047l-0.073,0.05l-0.076,0.051l-0.079,0.053l-0.082,0.055l-0.085,0.055l-0.087,0.058l-0.09,0.058l-0.093,0.059l-0.095,0.061l-0.097,0.061l-0.1,0.063l-0.102,0.063l-0.103,0.063l-0.106,0.065l-0.108,0.064l-0.11,0.065l-0.111,0.066l-0.113,0.065l-0.057,0.033l-0.057,0.033l-0.058,0.032l-0.058,0.033l-0.059,0.033l-0.059,0.032l-0.059,0.033l-0.059,0.032l-0.06,0.033l-0.06,0.032l-0.061,0.032l-0.06,0.032l-0.061,0.032l-0.061,0.032l-0.062,0.032l-0.061,0.031l-0.062,0.032l-0.062,0.031l-0.062,0.031l-0.062,0.03l-0.063,0.031l-0.063,0.03l-0.063,0.03l-0.063,0.03l-0.063,0.029l-0.063,0.029l-0.063,0.029l-0.064,0.028l-0.063,0.029l-0.064,0.027l-0.064,0.028l-0.063,0.027l-0.064,0.027l-0.064,0.026l-0.064,0.026l-0.064,0.026l-0.063,0.025l-0.064,0.025l-0.064,0.024l-0.064,0.024l-0.064,0.023l-0.063,0.023l-0.064,0.022l-0.064,0.022l-0.063,0.021l-0.064,0.021l-0.063,0.02l-0.064,0.019l-0.063,0.02l-0.063,0.018l-0.063,0.018l-0.062,0.017l-0.063,0.017l-0.038,0.009l-0.005,0.025l-0.011,0.06l-0.011,0.061l-0.011,0.063l-0.01,0.065l-0.01,0.067l-0.01,0.068l-0.009,0.07l-0.008,0.071l-0.009,0.073l-0.008,0.074l-0.008,0.076l-0.007,0.077l-0.007,0.079l-0.007,0.08l-0.006,0.081l-0.006,0.082l-0.006,0.083l-0.006,0.085l-0.005,0.086l-0.005,0.087l-0.004,0.087l-0.004,0.089l-0.004,0.09l-0.004,0.091l-0.003,0.091l-0.003,0.093l-0.003,0.093l-0.002,0.094l-0.003,0.095l-0.002,0.095l-0.001,0.096l-0.002,0.097l-0.001,0.098l-0.001,0.098l0,0.098l-0.001,0.099l0,0.099l0,0.1l0,0.1l0,0.101l0.001,0.101l0.001,0.101l0.001,0.101l0.001,0.102l0.002,0.102l0.001,0.102l0.002,0.101l0.004,0.205l0.005,0.204l0.005,0.203l0.006,0.204l0.007,0.202l0.007,0.201l0.007,0.2l0.008,0.197l0.008,0.196l0.009,0.194l0.009,0.191l0.009,0.188l0.009,0.185l0.009,0.182l0.01,0.178l0.01,0.174l0.01,0.17l0.009,0.165l0.01,0.16l0.01,0.155l0.009,0.15l0.01,0.144l0.009,0.139l0.017,0.257l0.017,0.231l0.014,0.201l0.013,0.169l0.008,0.104l9.667,0.302l0.004,-0.017l0.013,-0.051l0.007,-0.028l0.008,-0.029l0.008,-0.03l0.008,-0.032l0.01,-0.032l0.01,-0.034l0.01,-0.035l0.011,-0.036l0.012,-0.037l0.012,-0.039l0.013,-0.04l0.014,-0.041l0.015,-0.042l0.015,-0.043l0.016,-0.045l0.017,-0.046l0.017,-0.047l0.019,-0.048l0.019,-0.049l0.02,-0.05l0.021,-0.052l0.022,-0.053l0.023,-0.054l0.023,-0.055l0.025,-0.057l0.025,-0.057l0.027,-0.059l0.027,-0.059l0.028,-0.061l0.03,-0.063l0.03,-0.063l0.032,-0.064l0.033,-0.066l0.033,-0.066l0.035,-0.068l0.036,-0.069l0.037,-0.07l0.038,-0.071l0.04,-0.072l0.04,-0.074l0.042,-0.074l0.043,-0.076l0.045,-0.077l0.045,-0.078l0.047,-0.078l0.048,-0.081l0.05,-0.081l0.05,-0.082l0.052,-0.083l0.054,-0.085l0.055,-0.085l0.056,-0.087l0.058,-0.087l0.059,-0.089l0.061,-0.09l0.062,-0.091l0.063,-0.092l0.066,-0.093l0.066,-0.094l0.068,-0.095l0.07,-0.096l0.071,-0.097l0.073,-0.098l0.075,-0.1l0.076,-0.1l0.078,-0.101l0.079,-0.103l0.082,-0.103l0.083,-0.105l0.084,-0.105l0.087,-0.107l0.088,-0.107l0.044,-0.054l0.046,-0.055l0.045,-0.055l0.046,-0.054l0.047,-0.056l0.047,-0.055l0.047,-0.056l0.048,-0.056l0.048,-0.056l0.049,-0.056l0.05,-0.057l0.049,-0.057l0.05,-0.057l0.051,-0.058l0.051,-0.057l0.052,-0.058l0.052,-0.058l0.053,-0.059l0.053,-0.059l0.053,-0.059l0.054,-0.059l0.055,-0.059l0.055,-0.06l0.056,-0.06l0.056,-0.06l0.056,-0.06l0.057,-0.061l0.058,-0.061l0.058,-0.061l0.058,-0.061l0.059,-0.062l0.06,-0.062l0.06,-0.062l0.061,-0.063l0.061,-0.062l0.061,-0.063l0.063,-0.063l0.062,-0.063l0.064,-0.064l0.063,-0.064l0.065,-0.064l0.064,-0.064l0.066,-0.065l0.066,-0.065l0.066,-0.065l0.067,-0.065l0.068,-0.065l0.068,-0.066l0.068,-0.066l0.069,-0.066l0.07,-0.067l0.07,-0.066l0.071,-0.067l0.072,-0.068l0.072,-0.067l0.072,-0.068l0.073,-0.067l0.074,-0.069l0.074,-0.068l0.075,-0.068l0.075,-0.069l0.076,-0.069l0.077,-0.07l0.077,-0.069l0.078,-0.07l0.078,-0.07l0.079,-0.07l0.079,-0.07l0.081,-0.071l0.08,-0.071l0.082,-0.071l0.077,-0.068l0.303,-0.289l0.304,-0.292l0.301,-0.288l0.297,-0.286l0.294,-0.284l0.29,-0.281l0.287,-0.278l0.284,-0.275l0.279,-0.273l0.277,-0.269l0.272,-0.267l0.269,-0.263l0.265,-0.261l0.261,-0.257l0.258,-0.254l0.253,-0.25l0.25,-0.248l0.245,-0.244l0.242,-0.24l0.237,-0.237l0.234,-0.233l0.229,-0.229l0.225,-0.226l0.221,-0.222l0.216,-0.218l0.212,-0.214l0.208,-0.21l0.203,-0.206l0.199,-0.201l0.194,-0.198l0.19,-0.193l0.185,-0.189l0.181,-0.184l0.175,-0.18l0.171,-0.176l0.166,-0.171l0.162,-0.166l0.156,-0.161l0.152,-0.157l0.146,-0.151l0.142,-0.147l0.136,-0.142l0.258,-0.268l0.236,-0.248l0.216,-0.226l0.194,-0.205l0.172,-0.182l0.149,-0.159l0.127,-0.136l0.104,-0.111l0.08,-0.088l0.031,-0.033l0.025,-0.028l0.018,-0.02l0.018,-0.02l0.039,-0.04l0.033,-0.034l0.033,-0.034l0.032,-0.034l0.031,-0.033l0.03,-0.032l0.03,-0.033l0.03,-0.032l0.028,-0.031l0.028,-0.032l0.028,-0.031l0.026,-0.03l0.026,-0.031l0.026,-0.029l0.025,-0.03l0.024,-0.029l0.024,-0.029l0.023,-0.029l0.022,-0.028l0.022,-0.028l0.021,-0.028l0.021,-0.027l0.02,-0.027l0.02,-0.027l0.019,-0.026l0.018,-0.027l0.018,-0.026l0.017,-0.025l0.017,-0.025l0.017,-0.025l0.015,-0.025l0.016,-0.025l0.014,-0.024l0.014,-0.024l0.014,-0.024l0.013,-0.023l0.013,-0.023l0.012,-0.023l0.012,-0.023l0.012,-0.022l0.01,-0.023l0.011,-0.022l0.01,-0.022l0.009,-0.021l0.009,-0.022l0.009,-0.021l0.008,-0.021l0.008,-0.021l0.008,-0.02l0.007,-0.021l0.007,-0.02l0.006,-0.02l0.006,-0.02l0.006,-0.02l0.005,-0.02l0.005,-0.02l0.005,-0.019l0.004,-0.019l0.004,-0.02l0.003,-0.019l0.004,-0.019l0.003,-0.019l0.003,-0.019l0.002,-0.019l0.002,-0.019l0.002,-0.019l0.002,-0.019l0.001,-0.019l0.001,-0.019l0.001,-0.019l0,-0.019l0.001,-0.02l0,-0.019l-0.001,-0.019l0,-0.019l-0.001,-0.019l-0.001,-0.02l-0.001,-0.019l-0.002,-0.02l-0.001,-0.02l-0.002,-0.019l-0.003,-0.02l-0.002,-0.02l-0.003,-0.021l-0.003,-0.02l-0.003,-0.02l-0.003,-0.021l-0.004,-0.021l-0.003,-0.021l-0.004,-0.021l-0.005,-0.021l-0.004,-0.021l-0.009,-0.044l-0.011,-0.044l-0.011,-0.045l-0.011,-0.046l-0.013,-0.046l-0.013,-0.048l-0.013,-0.048l-0.015,-0.05l-0.014,-0.05l-0.016,-0.051l-0.032,-0.106l-0.033,-0.11l-0.035,-0.114l-0.017,-0.059l-0.018,-0.06l-0.009,-0.089l0.025,-0.087l0.055,-0.071l0.043,-0.038l0.044,-0.039l0.045,-0.041l0.047,-0.043l0.099,-0.09l0.105,-0.098l0.113,-0.105l0.121,-0.112l0.267,-0.249l0.147,-0.137l0.156,-0.144l0.166,-0.154l0.177,-0.162l0.187,-0.171l0.098,-0.089l0.101,-0.091l0.103,-0.094l0.106,-0.096l0.11,-0.098l0.113,-0.101l0.052,-0.047l0.054,-0.048l0.055,-0.048l0.055,-0.048l0.057,-0.049l0.058,-0.05l0.058,-0.05l0.06,-0.05l0.06,-0.051l0.062,-0.051l0.062,-0.052l0.064,-0.052l0.064,-0.053l0.066,-0.053l0.067,-0.054l0.068,-0.054l0.069,-0.055l0.07,-0.055l0.072,-0.055l0.072,-0.056l0.074,-0.057l0.075,-0.057l0.076,-0.057l0.078,-0.058l0.078,-0.058l0.08,-0.059l0.082,-0.059l0.082,-0.06l0.084,-0.06l0.085,-0.061l0.087,-0.061l0.088,-0.061l0.089,-0.062l0.091,-0.063l0.092,-0.063l0.094,-0.063l0.095,-0.064l0.096,-0.065l0.098,-0.064l0.099,-0.066l0.101,-0.066l0.103,-0.066l0.104,-0.067l0.105,-0.067l0.107,-0.067l0.109,-0.069l0.11,-0.068l0.112,-0.069l0.114,-0.07l0.115,-0.07l0.117,-0.07l0.119,-0.071l0.12,-0.072l0.122,-0.072l0.124,-0.072l0.125,-0.073l0.127,-0.073l0.129,-0.074l0.131,-0.075l0.133,-0.074l0.134,-0.076l0.136,-0.075l0.138,-0.077l0.14,-0.076l0.142,-0.077l0.144,-0.078l0.146,-0.078l0.147,-0.079l0.15,-0.079l0.151,-0.08l0.154,-0.08l0.155,-0.08l0.158,-0.081l0.16,-0.082l0.161,-0.082l0.164,-0.082l0.166,-0.083l0.168,-0.084l0.17,-0.084l0.172,-0.084l0.174,-0.085l0.176,-0.085l0.179,-0.086l0.181,-0.086l0.183,-0.087l0.185,-0.088l0.187,-0.088l0.19,-0.088l0.192,-0.089l0.194,-0.089l0.197,-0.09l0.199,-0.09l0.201,-0.091l0.204,-0.091l0.206,-0.092l0.208,-0.092l0.211,-0.093l0.213,-0.093l0.215,-0.094l0.218,-0.094l0.221,-0.095l0.223,-0.095l0.225,-0.096l0.228,-0.096l0.231,-0.096l0.233,-0.098l0.235,-0.097l0.239,-0.098l0.24,-0.099l0.244,-0.099l0.246,-0.1l0.248,-0.1l0.252,-0.101l0.254,-0.101l0.256,-0.102l0.26,-0.102l0.262,-0.103l0.264,-0.103l0.268,-0.103l0.27,-0.105l0.273,-0.104l0.276,-0.105l0.279,-0.106l0.282,-0.106l0.284,-0.107l0.287,-0.107l0.29,-0.108l0.299,-0.11l0.238,-0.074l0.23,-0.07l0.227,-0.069l0.225,-0.069l0.223,-0.068l0.22,-0.067l0.219,-0.066l0.216,-0.065l0.214,-0.064l0.212,-0.063l0.21,-0.063l0.207,-0.062l0.206,-0.06l0.204,-0.061l0.201,-0.059l0.2,-0.058l0.197,-0.058l0.196,-0.057l0.193,-0.056l0.192,-0.055l0.189,-0.055l0.188,-0.053l0.186,-0.053l0.184,-0.053l0.181,-0.051l0.18,-0.051l0.179,-0.05l0.176,-0.049l0.174,-0.049l0.173,-0.048l0.171,-0.047l0.169,-0.047l0.167,-0.045l0.165,-0.046l0.164,-0.044l0.162,-0.044l0.319,-0.086l0.312,-0.083l0.306,-0.081l0.299,-0.078l0.292,-0.076l0.287,-0.074l0.28,-0.072l0.274,-0.069l0.268,-0.067l0.263,-0.065l0.257,-0.063l0.251,-0.062l0.246,-0.059l0.241,-0.057l0.235,-0.056l0.231,-0.054l0.225,-0.053l0.221,-0.05l0.216,-0.05l0.211,-0.048l0.207,-0.046l0.203,-0.045l0.198,-0.044l0.194,-0.043l0.191,-0.041l0.186,-0.041l0.183,-0.039l0.179,-0.038l0.348,-0.074l0.335,-0.071l0.323,-0.068l0.312,-0.066l0.301,-0.064l0.147,-0.032l0.146,-0.031l0.143,-0.031l0.141,-0.031l0.139,-0.031l0.137,-0.031l0.136,-0.03l0.135,-0.031l0.133,-0.031l0.132,-0.032l0.131,-0.031l0.13,-0.032l0.129,-0.033l0.129,-0.032l0.127,-0.034l0.128,-0.034l0.063,-0.017l0.064,-0.017l0.063,-0.017l0.064,-0.018l0.063,-0.018l0.063,-0.018l0.064,-0.018l0.063,-0.019l0.063,-0.019l0.064,-0.018l0.063,-0.02l0.064,-0.019l0.064,-0.02l0.064,-0.02l0.064,-0.02l0.064,-0.02l0.064,-0.021l0.065,-0.021l0.064,-0.021l0.065,-0.022l0.065,-0.022l0.066,-0.022l0.066,-0.023l0.065,-0.022l0.067,-0.024l0.066,-0.023l0.067,-0.024l0.067,-0.025l0.068,-0.024l0.068,-0.025l0.068,-0.026l0.069,-0.026l0.069,-0.026l0.07,-0.027l0.07,-0.027l0.07,-0.027l0.071,-0.028l0.072,-0.029l0.072,-0.028l0.072,-0.03l0.073,-0.029l0.074,-0.031l0.074,-0.03l0.075,-0.032l0.075,-0.031l0.076,-0.033l0.077,-0.032l0.077,-0.034l0.078,-0.033l0.079,-0.035l0.079,-0.034l0.08,-0.036l0.081,-0.036l0.082,-0.036l0.082,-0.037l0.083,-0.038l0.084,-0.038l0.085,-0.039l0.085,-0.04l0.086,-0.04l0.088,-0.04l0.088,-0.042l0.089,-0.042l0.089,-0.042l0.091,-0.043l0.092,-0.044l0.092,-0.045l0.094,-0.045l0.094,-0.046l0.096,-0.047l0.096,-0.047l0.098,-0.048l0.198,-0.098l0.202,-0.101l0.207,-0.104l0.211,-0.107l0.216,-0.11l0.221,-0.113l0.225,-0.116l0.231,-0.12l0.235,-0.123l0.241,-0.126l0.246,-0.13l0.251,-0.133l0.257,-0.137l0.263,-0.14l0.269,-0.144l0.274,-0.148l0.281,-0.151l0.286,-0.156l0.293,-0.159l0.3,-0.163l0.059,-0.033l0.059,-0.033l0.059,-0.033l0.06,-0.034l0.06,-0.034l0.06,-0.035l0.06,-0.035l0.06,-0.035l0.061,-0.036l0.06,-0.036l0.061,-0.037l0.061,-0.037l0.062,-0.038l0.061,-0.038l0.062,-0.039l0.061,-0.038l0.062,-0.04l0.062,-0.04l0.062,-0.04l0.063,-0.04l0.062,-0.041l0.063,-0.042l0.063,-0.041l0.063,-0.043l0.063,-0.042l0.063,-0.043l0.063,-0.043l0.064,-0.044l0.064,-0.044l0.063,-0.045l0.064,-0.045l0.064,-0.045l0.064,-0.046l0.065,-0.046l0.064,-0.046l0.065,-0.047l0.064,-0.047l0.065,-0.048l0.065,-0.047l0.065,-0.049l0.065,-0.048l0.065,-0.049l0.065,-0.05l0.066,-0.049l0.065,-0.05l0.066,-0.051l0.065,-0.05l0.066,-0.051l0.066,-0.052l0.066,-0.051l0.066,-0.052l0.066,-0.053l0.066,-0.052l0.066,-0.053l0.067,-0.054l0.066,-0.054l0.067,-0.054l0.066,-0.054l0.067,-0.054l0.066,-0.055l0.067,-0.056l0.067,-0.055l0.067,-0.056l0.066,-0.056l0.067,-0.057l0.067,-0.056l0.067,-0.058l0.067,-0.057l0.067,-0.058l0.067,-0.057l0.068,-0.059l0.067,-0.058l0.067,-0.059l0.067,-0.059l0.067,-0.059l0.068,-0.06l0.067,-0.06l0.067,-0.06l0.068,-0.06l0.067,-0.061l0.068,-0.061l0.067,-0.061l0.067,-0.062l0.068,-0.061l0.067,-0.062l0.068,-0.063l0.067,-0.062l0.067,-0.063l0.068,-0.063l0.067,-0.063l0.068,-0.063l0.067,-0.064l0.135,-0.128l0.134,-0.129l0.135,-0.13l0.134,-0.131l0.135,-0.131l0.134,-0.133l0.134,-0.133l0.134,-0.134l0.133,-0.135l0.134,-0.135l0.133,-0.136l0.133,-0.137l0.132,-0.138l0.133,-0.139l0.132,-0.139l0.131,-0.139l0.132,-0.141l0.131,-0.141l0.13,-0.141l0.131,-0.142l0.129,-0.143l0.13,-0.143l0.129,-0.144l0.128,-0.144l0.128,-0.144l0.127,-0.145l0.127,-0.146l0.127,-0.146l0.126,-0.146l0.125,-0.147l0.124,-0.147l0.125,-0.147l0.123,-0.148l0.123,-0.148l0.122,-0.148l0.121,-0.148l0.121,-0.149l0.12,-0.149l0.119,-0.149l0.119,-0.15l0.117,-0.149l0.117,-0.15l0.116,-0.15l0.058,-0.074l0.057,-0.075l0.058,-0.075l0.057,-0.075l0.057,-0.075l0.056,-0.075l0.057,-0.075l0.056,-0.075l0.056,-0.075l0.056,-0.075l0.055,-0.075l0.056,-0.075l0.055,-0.075l0.055,-0.076l0.054,-0.075l0.055,-0.075l0.054,-0.075l0.054,-0.075l0.053,-0.074l0.054,-0.075l0.053,-0.075l0.053,-0.075l0.052,-0.075l0.053,-0.075l0.052,-0.075l0.052,-0.074l0.051,-0.075l0.051,-0.075l0.051,-0.075l0.051,-0.074l0.051,-0.075l0.05,-0.074l0.05,-0.075l0.05,-0.074l0.049,-0.074l0.049,-0.075l0.049,-0.074l0.048,-0.074l0.048,-0.074l0.048,-0.074l0.048,-0.074l0.047,-0.074l0.047,-0.074l0.047,-0.073l0.046,-0.074l0.047,-0.073l0.045,-0.074l0.046,-0.073l0.045,-0.074l0.045,-0.073l0.044,-0.073l0.045,-0.073l0.043,-0.073l0.044,-0.072l0.043,-0.073l0.043,-0.073l0.043,-0.072l0.042,-0.072l0.042,-0.073l0.041,-0.072l0.042,-0.072l0.041,-0.072l0.04,-0.071l0.04,-0.072l0.04,-0.071l0.04,-0.072l0.039,-0.071l0.038,-0.071l0.039,-0.071l0.038,-0.071l0.038,-0.07l0.037,-0.071l0.037,-0.07l0.036,-0.07l0.037,-0.07l0.035,-0.07l0.036,-0.07l0.035,-0.069l0.062,-0.123l0.061,-0.123l0.06,-0.124l0.06,-0.123l0.06,-0.124l0.059,-0.124l0.059,-0.124l0.058,-0.124l0.058,-0.124l0.057,-0.125l0.057,-0.124l0.056,-0.125l0.056,-0.125l0.055,-0.125l0.055,-0.125l0.055,-0.125l0.054,-0.125l0.053,-0.125l0.053,-0.126l0.053,-0.126l0.052,-0.125l0.052,-0.126l0.051,-0.126l0.05,-0.126l0.051,-0.126l0.05,-0.126l0.049,-0.126l0.049,-0.127l0.048,-0.126l0.048,-0.126l0.047,-0.127l0.047,-0.126l0.047,-0.127l0.046,-0.127l0.046,-0.126l0.045,-0.127l0.045,-0.127l0.044,-0.127l0.044,-0.127l0.043,-0.127l0.043,-0.126l0.042,-0.127l0.042,-0.127l0.042,-0.127l0.041,-0.127l0.041,-0.128l0.04,-0.127l0.04,-0.127l0.039,-0.127l0.039,-0.127l0.038,-0.127l0.038,-0.127l0.038,-0.127l0.037,-0.127l0.036,-0.127l0.037,-0.127l0.035,-0.127l0.036,-0.127l0.034,-0.127l0.035,-0.127l0.034,-0.127l0.033,-0.127l0.033,-0.126l0.033,-0.127l0.032,-0.127l0.032,-0.126l0.031,-0.127l0.031,-0.126l0.031,-0.127l0.03,-0.126l0.03,-0.127l0.029,-0.126l0.028,-0.126l0.029,-0.126l0.028,-0.126l0.027,-0.126l0.027,-0.126l0.027,-0.126l0.026,-0.125l0.026,-0.126l0.025,-0.125l0.025,-0.125l0.024,-0.126l0.024,-0.125l0.024,-0.125l0.023,-0.124l0.023,-0.125l0.022,-0.125l0.022,-0.124l0.021,-0.125l0.022,-0.124l0.02,-0.124l0.02,-0.124l0.02,-0.123l0.02,-0.124l0.019,-0.123l0.018,-0.124l0.018,-0.123l0.018,-0.123l0.017,-0.123l0.017,-0.122l0.017,-0.123l0.016,-0.122l0.016,-0.122l0.015,-0.122l0.015,-0.122l0.014,-0.121l0.014,-0.121l0.014,-0.121l0.013,-0.121l0.013,-0.121l0.012,-0.121l0.012,-0.12l0.012,-0.12l0.011,-0.12l0.011,-0.119l0.01,-0.12l0.01,-0.119l0.01,-0.119l0.009,-0.119l0.009,-0.118l0.008,-0.118l0.008,-0.118l0.008,-0.118l0.007,-0.117l0.007,-0.117l0.006,-0.117l0.006,-0.117l0.006,-0.116l0.005,-0.117l0.005,-0.115l0.004,-0.116l0.004,-0.115l0.004,-0.115l0.003,-0.115l0.003,-0.114l0.003,-0.115l0.002,-0.113l0.001,-0.114l0.002,-0.113l0.001,-0.113l0,-0.113l0,-0.112l0,-0.112l-0.001,-0.112l0,-0.111l-0.002,-0.111l-0.002,-0.11l-0.002,-0.111l-0.002,-0.11l-0.003,-0.109l-0.003,-0.11l-0.004,-0.109l-0.004,-0.108l-0.004,-0.108l-0.005,-0.108l-0.005,-0.108l-0.006,-0.107l-0.006,-0.107l-0.006,-0.106l-0.007,-0.106l-0.007,-0.106l-0.007,-0.105l-0.008,-0.105l-0.008,-0.104l-0.008,-0.104l-0.009,-0.104l-0.009,-0.103l-0.01,-0.103l-0.01,-0.102l-0.01,-0.102l-0.011,-0.102l-0.011,-0.101l-0.011,-0.101l-0.012,-0.1l-0.012,-0.1l-0.012,-0.1l-0.013,-0.099l-0.013,-0.098l-0.014,-0.098l-0.014,-0.098l-0.014,-0.097l-0.015,-0.097l-0.015,-0.097l-0.015,-0.095l-0.016,-0.096l-0.016,-0.095l-0.016,-0.094l-0.017,-0.094l-0.017,-0.094l-0.017,-0.093l-0.018,-0.092l-0.018,-0.092l-0.018,-0.092l-0.019,-0.091l-0.019,-0.091l-0.02,-0.09l-0.019,-0.089l-0.021,-0.089l-0.02,-0.089l-0.021,-0.088l-0.021,-0.087l-0.022,-0.087l-0.021,-0.087l-0.023,-0.086l-0.022,-0.085l-0.023,-0.085l-0.023,-0.084l-0.024,-0.084l-0.024,-0.083l-0.024,-0.083l-0.024,-0.082l-0.025,-0.081l-0.025,-0.081l-0.026,-0.081l-0.026,-0.08l-0.026,-0.079l-0.026,-0.078l-0.027,-0.079l-0.027,-0.077l-0.027,-0.077l-0.028,-0.076l-0.028,-0.076l-0.029,-0.075l-0.028,-0.075l-0.029,-0.074l-0.03,-0.073l-0.029,-0.073l-0.03,-0.072l-0.03,-0.071l-0.031,-0.071l-0.031,-0.07l-0.031,-0.07l-0.031,-0.069l-0.032,-0.068l-0.032,-0.068l-0.033,-0.067l-0.032,-0.066l-0.033,-0.066l-0.034,-0.065l-0.033,-0.064l-0.034,-0.064l-0.034,-0.063l-0.035,-0.063l-0.035,-0.061l-0.035,-0.061l-0.035,-0.061l-0.036,-0.06l-0.035,-0.059l-0.037,-0.058l-0.036,-0.058l-0.037,-0.057l-0.037,-0.056l-0.037,-0.055l-0.038,-0.055l-0.038,-0.055l-0.05,-0.071l-0.051,-0.071l-0.05,-0.071l-0.051,-0.071l-0.052,-0.07l-0.051,-0.071l-0.052,-0.07l-0.051,-0.071l-0.052,-0.07l-0.053,-0.07l-0.052,-0.07l-0.053,-0.07l-0.053,-0.069l-0.053,-0.07l-0.054,-0.069l-0.054,-0.069l-0.054,-0.069l-0.054,-0.069l-0.055,-0.069l-0.055,-0.068l-0.056,-0.068l-0.055,-0.069l-0.056,-0.068l-0.057,-0.067l-0.057,-0.068l-0.057,-0.067l-0.057,-0.067l-0.058,-0.067l-0.059,-0.067l-0.058,-0.067l-0.059,-0.066l-0.06,-0.066l-0.06,-0.066l-0.06,-0.066l-0.061,-0.066l-0.061,-0.065l-0.062,-0.065l-0.062,-0.065l-0.063,-0.065l-0.063,-0.064l-0.063,-0.065l-0.064,-0.064l-0.065,-0.063l-0.065,-0.064l-0.066,-0.063l-0.066,-0.063l-0.067,-0.063l-0.067,-0.063l-0.068,-0.062l-0.068,-0.062l-0.069,-0.062l-0.07,-0.061l-0.07,-0.062l-0.07,-0.061l-0.072,-0.061l-0.072,-0.06l-0.072,-0.06l-0.073,-0.06l-0.074,-0.06l-0.074,-0.06l-0.076,-0.059l-0.075,-0.059l-0.077,-0.058l-0.077,-0.058l-0.078,-0.058l-0.078,-0.058l-0.079,-0.058l-0.08,-0.057l-0.081,-0.057l-0.081,-0.056l-0.082,-0.056l-0.083,-0.056l-0.084,-0.056l-0.084,-0.055l-0.085,-0.055l-0.086,-0.055l-0.087,-0.054l-0.087,-0.054l-0.089,-0.054l-0.089,-0.053l-0.045,-0.027l-0.045,-0.026l-0.045,-0.026l-0.046,-0.027l-0.045,-0.026l-0.046,-0.026l-0.046,-0.026l-0.047,-0.026l-0.046,-0.026l-0.047,-0.026l-0.047,-0.025l-0.047,-0.026l-0.048,-0.026l-0.047,-0.025l-0.048,-0.025l-0.048,-0.026l-0.049,-0.025l-0.048,-0.025l-0.049,-0.025l-0.049,-0.025l-0.049,-0.024l-0.049,-0.025l-0.05,-0.025l-0.05,-0.024l-0.05,-0.025l-0.051,-0.024l-0.05,-0.024l-0.051,-0.025l-0.051,-0.024l-0.051,-0.024l-0.052,-0.023l-0.052,-0.024l-0.052,-0.024l-0.052,-0.024l-0.053,-0.023l-0.052,-0.023l-0.053,-0.024l-0.054,-0.023l-0.053,-0.023l-0.054,-0.023l-0.054,-0.023l-0.054,-0.023l-0.055,-0.023l-0.054,-0.022l-0.055,-0.023l-0.056,-0.022l-0.055,-0.022l-0.056,-0.023l-0.056,-0.022l-0.056,-0.022l-0.057,-0.022l-0.056,-0.022l-0.057,-0.021l-0.058,-0.022l-0.057,-0.021l-0.058,-0.022l-0.058,-0.021l-0.059,-0.021l-0.058,-0.021l-0.059,-0.021l-0.059,-0.021l-0.06,-0.021l-0.06,-0.021l-0.06,-0.02l-0.06,-0.021l-0.06,-0.02l-0.061,-0.02l-0.061,-0.02l-0.062,-0.02l-0.061,-0.02l-0.062,-0.02l-0.063,-0.02l-0.062,-0.019l-0.063,-0.02l-0.063,-0.019l-0.063,-0.019l-0.064,-0.019l-0.064,-0.019l-0.064,-0.019l-0.065,-0.019l-0.064,-0.019l-0.066,-0.018l-0.065,-0.019l-0.066,-0.018l-0.066,-0.018l-0.066,-0.019l-0.066,-0.018l-0.067,-0.017l-0.067,-0.018l-0.068,-0.018l-0.068,-0.017l-0.068,-0.018l-0.068,-0.017l-0.069,-0.017l-0.069,-0.017l-0.069,-0.017l-0.588,-0.143l-0.295,-0.071l-0.295,-0.071l-0.148,-0.036l-0.148,-0.035l-0.149,-0.035l-0.149,-0.035l-0.148,-0.034l-0.15,-0.035l-0.149,-0.034l-0.15,-0.033l-0.15,-0.034l-0.15,-0.033l-0.15,-0.033l-0.151,-0.032l-0.152,-0.032l-0.151,-0.032l-0.152,-0.031l-0.153,-0.031l-0.152,-0.03l-0.153,-0.029l-0.154,-0.03l-0.154,-0.028l-0.155,-0.028l-0.155,-0.027l-0.077,-0.014l-0.078,-0.013l-0.078,-0.013l-0.078,-0.013l-0.078,-0.013l-0.078,-0.013l-0.079,-0.012l-0.078,-0.012l-0.079,-0.012l-0.079,-0.012l-0.079,-0.012l-0.079,-0.012l-0.079,-0.011l-0.079,-0.011l-0.08,-0.011l-0.079,-0.011l-0.08,-0.01l-0.08,-0.011l-0.08,-0.01l-0.081,-0.01l-0.08,-0.009l-0.08,-0.01l-0.081,-0.009l-0.081,-0.009l-0.081,-0.009l-0.081,-0.009l-0.082,-0.008l-0.081,-0.008l-0.082,-0.008l-0.082,-0.008l-0.082,-0.007l-0.082,-0.007l-0.082,-0.007l-0.083,-0.007l-0.082,-0.006l-0.083,-0.006l-0.083,-0.006l-0.084,-0.006l-0.083,-0.005l-0.084,-0.005l-0.084,-0.005l-0.084,-0.005l-0.084,-0.004l-0.084,-0.004l-0.085,-0.004l-0.084,-0.003l-0.085,-0.003l-0.086,-0.003l-0.085,-0.002l-0.086,-0.003l-0.085,-0.002l-0.086,-0.001l-0.086,-0.002l-0.087,-0.001l-0.086,0l-0.087,-0.001l-0.087,0l-0.088,0Zm-69.281,84.088l0.003,0.002l-0.008,-0.005l0.005,0.003Zm15.658,-15.222l0.001,-0.001l0.007,-0.004l0.01,-0.006l0.011,-0.009l0.012,-0.012l0.005,-0.006l-0.046,0.038Zm1.825,-0.067l-0.005,-0.011l-0.003,-0.005l0.008,0.016Zm-0.03,-0.045l-0.004,-0.006l-0.034,-0.03l-0.025,-0.015l-0.007,-0.003l0.07,0.054Z" style="fill:#424242;"/><path d="M61.007,58.669c-11.889,2.878 -23.171,10.405 -22.753,10.564c5.973,-9.603 6.122,-9.854 10.429,-22.666c1.867,4.854 4.196,7.076 4.196,7.076c0,0 2.254,2.772 8.128,5.026Z" style="fill:#e26207;stroke:#4d4d4d;stroke-width:0.24px;stroke-linecap:round;stroke-miterlimit:1.5;"/></g><path d="M87.476,5.56c0,0 -9.885,-1.682 -19.35,4.874c-9.466,6.557 -13.722,14.272 -15.417,20.927c-1.694,6.655 -1.916,12.869 3.568,19.79c5.483,6.922 19.123,6.013 27.479,0.462c8.11,-5.793 11.318,-9.447 14.113,-15.454c2.796,-6.008 4.804,-11.929 2.08,-20.717c-3.335,-8.743 -12.543,-9.784 -12.473,-9.882Z" style="fill:#e26207;stroke:#4d4d4d;stroke-width:0.24px;stroke-linecap:round;stroke-miterlimit:1.5;"/></g></g><g><path d="M70.977,39.416c1.751,1.545 7.036,2.004 10.809,-1.007c-0.538,-1.961 -2.393,-2.234 -2.88,-2.214c-1.322,0.054 -2.972,1.908 -7.929,3.221Z" style="fill:#424242;stroke:#4d4d4d;stroke-width:0.24px;stroke-linecap:round;stroke-miterlimit:1.5;"/><path d="M83.711,25.972c0,0 -2.639,5.765 -5.723,5.522c-3.98,0.038 -6.217,-3.475 -8.743,-3.6c-1.586,-0.244 -2.495,0.474 -2.681,0.679c-0.92,3.539 0.897,8.223 2.869,9.753c1.407,0.039 4.523,-0.966 8.203,-3.095c2.786,-0.856 4.044,0.976 5.22,2.064c2.773,-2.249 2.755,-8.236 0.855,-11.323Z" style="fill:#424242;stroke:#4d4d4d;stroke-width:0.24px;stroke-linecap:round;stroke-miterlimit:1.5;"/><path d="M82.485,24.643c-0.71,-0.907 -3.11,-2.962 -6.943,-2.948c-3.774,0.014 -5.585,1.206 -8.088,4.634c3.783,-0.007 4.524,1.049 6.109,1.974c1.413,0.824 3.484,2.174 5.311,1.576c1.878,-0.669 3.212,-3.461 3.611,-5.236Z" style="fill:#424242;stroke:#4d4d4d;stroke-width:0.24px;stroke-linecap:round;stroke-miterlimit:1.5;"/></g></g></svg>