<?xml version="1.0" encoding="UTF-8" standalone="no"?><!DOCTYPE svg PUBLIC "-//W3C//DTD SVG 1.1//EN" "http://www.w3.org/Graphics/SVG/1.1/DTD/svg11.dtd"><svg width="100%" height="100%" viewBox="0 0 476 476" version="1.1" xmlns="http://www.w3.org/2000/svg" xmlns:xlink="http://www.w3.org/1999/xlink" xml:space="preserve" xmlns:serif="http://www.serif.com/" style="fill-rule:evenodd;clip-rule:evenodd;stroke-linejoin:round;stroke-miterlimit:1.41421;"><path d="M467.087,99.355c-5.328,-5.327 -11.797,-7.993 -19.411,-7.993l-82.228,0l0,-27.407c0,-12.562 -4.466,-23.313 -13.415,-32.261c-8.945,-8.945 -19.704,-13.417 -32.264,-13.417l-164.451,0c-12.562,0 -23.318,4.471 -32.264,13.417c-8.947,8.947 -13.418,19.698 -13.418,32.261l0,27.408l-82.228,0c-7.612,0 -14.083,2.663 -19.414,7.993c-5.331,5.33 -7.994,11.802 -7.994,19.416l0,36.544c0,13.512 3.949,27.122 11.849,40.828c7.898,13.703 18.555,26.079 31.977,37.114c13.417,11.04 29.881,20.32 49.392,27.839c19.512,7.519 40.019,11.755 61.529,12.703c7.996,10.284 17.034,19.321 27.122,27.121c7.235,6.471 12.228,13.366 14.989,20.704c2.758,7.323 4.138,15.841 4.138,25.55c0,10.28 -2.9,18.938 -8.708,25.974c-5.802,7.05 -15.082,10.568 -27.834,10.568c-14.277,0 -26.98,4.332 -38.116,12.99c-11.134,8.665 -16.702,19.561 -16.702,32.695l0,18.268c0,2.669 0.855,4.859 2.568,6.57c1.714,1.711 3.901,2.566 6.567,2.566l237.544,0c2.67,0 4.853,-0.855 6.571,-2.566c1.704,-1.711 2.56,-3.901 2.56,-6.57l0,-18.268c0,-13.135 -5.564,-24.027 -16.707,-32.695c-11.136,-8.658 -23.839,-12.99 -38.116,-12.99c-12.748,0 -22.032,-3.519 -27.829,-10.568c-5.804,-7.036 -8.699,-15.693 -8.699,-25.974c0,-9.713 1.376,-18.227 4.134,-25.55c2.766,-7.338 7.762,-14.229 14.989,-20.704c10.089,-7.803 19.13,-16.845 27.117,-27.121c21.519,-0.948 42.021,-5.185 61.537,-12.703c19.503,-7.519 35.974,-16.799 49.389,-27.839c13.422,-11.039 24.079,-23.411 31.977,-37.114c7.898,-13.706 11.848,-27.315 11.848,-40.828l0,-36.544c-0.004,-7.61 -2.67,-14.084 -7.999,-19.417Zm-403.562,102.21c-17.987,-15.987 -26.979,-31.405 -26.979,-46.252l0,-27.408l73.089,0c0,39.784 7.04,75.09 21.126,105.924c-26.834,-5.518 -49.247,-16.277 -67.236,-32.264Zm375.011,-46.249c0,14.847 -8.986,30.269 -26.973,46.255c-17.994,15.987 -40.406,26.743 -67.239,32.261c14.086,-30.833 21.125,-66.14 21.125,-105.924l73.087,0l0,27.408Z" style="fill:#ee8133;fill-rule:nonzero;"/></svg>